<?xml version="1.0" encoding="UTF-8" standalone="no"?>
<!-- Created with Inkscape (http://www.inkscape.org/) -->

<svg
   xmlns:dc="http://purl.org/dc/elements/1.1/"
   xmlns:cc="http://creativecommons.org/ns#"
   xmlns:rdf="http://www.w3.org/1999/02/22-rdf-syntax-ns#"
   xmlns:svg="http://www.w3.org/2000/svg"
   xmlns="http://www.w3.org/2000/svg"
   xmlns:xlink="http://www.w3.org/1999/xlink"
   xmlns:sodipodi="http://sodipodi.sourceforge.net/DTD/sodipodi-0.dtd"
   xmlns:inkscape="http://www.inkscape.org/namespaces/inkscape"
   width="64px"
   height="64px"
   id="svg2985"
   version="1.1"
   inkscape:version="0.48.4 r9939"
   sodipodi:docname="logo.svg">
  <defs
     id="defs2987">
    <linearGradient
       id="linearGradient3923">
      <stop
         style="stop-color:#aa7100;stop-opacity:1;"
         offset="0"
         id="stop3925" />
      <stop
         style="stop-color:#e9c24e;stop-opacity:1;"
         offset="1"
         id="stop3927" />
    </linearGradient>
    <linearGradient
       id="linearGradient3797">
      <stop
         style="stop-color:#daaa31;stop-opacity:1;"
         offset="0"
         id="stop3799" />
      <stop
         id="stop3805"
         offset="0.5"
         style="stop-color:#f8cc5f;stop-opacity:1;" />
      <stop
         style="stop-color:#f4ae00;stop-opacity:1;"
         offset="0.75"
         id="stop3921" />
      <stop
         style="stop-color:#b58307;stop-opacity:1;"
         offset="1"
         id="stop3801" />
    </linearGradient>
    <inkscape:path-effect
       is_visible="true"
       id="path-effect3017"
       effect="spiro" />
    <inkscape:path-effect
       effect="spiro"
       id="path-effect3013"
       is_visible="true" />
    <inkscape:path-effect
       effect="spiro"
       id="path-effect3009"
       is_visible="true" />
    <inkscape:path-effect
       effect="spiro"
       id="path-effect3005"
       is_visible="true" />
    <inkscape:path-effect
       effect="spiro"
       id="path-effect3001"
       is_visible="true" />
    <inkscape:path-effect
       effect="spiro"
       id="path-effect2997"
       is_visible="true" />
    <radialGradient
       inkscape:collect="always"
       xlink:href="#linearGradient3797"
       id="radialGradient3803"
       cx="31.700048"
       cy="30.072044"
       fx="31.700048"
       fy="30.072044"
       r="28.180935"
       gradientTransform="matrix(0.98948797,-0.00306323,0.00299906,0.96875903,0.24304396,1.036586)"
       gradientUnits="userSpaceOnUse" />
    <linearGradient
       inkscape:collect="always"
       xlink:href="#linearGradient3923"
       id="linearGradient3931"
       x1="1.6925616"
       y1="1.7378986"
       x2="60.206848"
       y2="59.768597"
       gradientUnits="userSpaceOnUse" />
    <radialGradient
       inkscape:collect="always"
       xlink:href="#linearGradient3797-2"
       id="radialGradient3803-4"
       cx="31.700048"
       cy="30.072044"
       fx="31.700048"
       fy="30.072044"
       r="28.180935"
       gradientTransform="matrix(0.98948797,-0.00306323,0.00299906,0.96875903,0.8626708,2.9793891)"
       gradientUnits="userSpaceOnUse" />
    <linearGradient
       id="linearGradient3797-2">
      <stop
         style="stop-color:#c8a243;stop-opacity:1;"
         offset="0"
         id="stop3799-6" />
      <stop
         id="stop3805-5"
         offset="0.5"
         style="stop-color:#e5c472;stop-opacity:1;" />
      <stop
         style="stop-color:#d6a11e;stop-opacity:1;"
         offset="0.75"
         id="stop3921-5" />
      <stop
         style="stop-color:#b58307;stop-opacity:1;"
         offset="1"
         id="stop3801-9" />
    </linearGradient>
    <linearGradient
       inkscape:collect="always"
       xlink:href="#linearGradient3797-5"
       id="linearGradient3771"
       x1="49.832115"
       y1="7.250885"
       x2="16.414347"
       y2="51.048416"
       gradientUnits="userSpaceOnUse"
       gradientTransform="translate(-1.8807603,-0.07227955)" />
    <linearGradient
       id="linearGradient3797-5">
      <stop
         style="stop-color:#c8a243;stop-opacity:1;"
         offset="0"
         id="stop3799-0" />
      <stop
         id="stop3775"
         offset="0.24755031"
         style="stop-color:#d49700;stop-opacity:1;" />
      <stop
         id="stop3805-7"
         offset="0.49510062"
         style="stop-color:#e5d772;stop-opacity:1;" />
      <stop
         style="stop-color:#efcf82;stop-opacity:1;"
         offset="0.59300888"
         id="stop3921-7" />
      <stop
         id="stop3773"
         offset="0.79650444"
         style="stop-color:#dfbf43;stop-opacity:1;" />
      <stop
         style="stop-color:#b58307;stop-opacity:1;"
         offset="1"
         id="stop3801-0" />
    </linearGradient>
    <linearGradient
       y2="51.048416"
       x2="16.414347"
       y1="7.250885"
       x1="49.832115"
       gradientTransform="translate(1.2850563,1.4401144)"
       gradientUnits="userSpaceOnUse"
       id="linearGradient3864"
       xlink:href="#linearGradient3797-5"
       inkscape:collect="always" />
  </defs>
  <sodipodi:namedview
     id="base"
     pagecolor="#ffffff"
     bordercolor="#666666"
     borderopacity="1.0"
     inkscape:pageopacity="0.0"
     inkscape:pageshadow="2"
     inkscape:zoom="6.0330264"
     inkscape:cx="31.338224"
     inkscape:cy="26.448972"
     inkscape:current-layer="layer1"
     showgrid="true"
     inkscape:document-units="px"
     inkscape:grid-bbox="true"
     inkscape:window-width="1280"
     inkscape:window-height="741"
     inkscape:window-x="0"
     inkscape:window-y="27"
     inkscape:window-maximized="1" />
  <metadata
     id="metadata2990">
    <rdf:RDF>
      <cc:Work
         rdf:about="">
        <dc:format>image/svg+xml</dc:format>
        <dc:type
           rdf:resource="http://purl.org/dc/dcmitype/StillImage" />
        <dc:title />
      </cc:Work>
    </rdf:RDF>
  </metadata>
  <g
     id="layer1"
     inkscape:label="Layer 1"
     inkscape:groupmode="layer">
    <path
       style="fill:url(#linearGradient3864);fill-opacity:1;stroke:#956f27;stroke-width:0.5;stroke-opacity:0.88936169"
       d="m 8.2538067,4.7526144 c -0.218082,0.01887 -0.411992,0.07437 -0.625,0.125 -0.997213,0.390039 -1.854614,1.141222 -2.34375,2.09375 -0.489137,0.952528 -0.607793,2.087288 -0.34375,3.1249996 0.322969,1.269298 1.238494,2.379171 2.4375,2.90625 1.199005,0.527078 2.6566353,0.452569 3.7812503,-0.21875 1.019281,-0.608442 1.733424,-1.674352 1.937499,-2.8437496 0.204075,-1.169397 -0.103693,-2.422777 -0.812499,-3.375 -0.522929,-0.702511 -1.270706,-1.231961 -2.09375,-1.53125 -0.6172833,-0.224466 -1.2832543,-0.33786 -1.9375003,-0.28125 z m 47.3749993,2.46875 c -0.286584,2.20241 -1.185137,4.3453656 -2.59375,6.0624996 -1.414423,1.724216 -3.270253,3.011686 -5.125,4.25 -0.240166,0.160346 -0.478172,0.339111 -0.71875,0.5 -2.336463,-0.992737 -4.840387,-1.571885 -7.375,-1.5625 -3.13951,0.01163 -6.298203,0.932348 -8.8125,2.8125 -1.650339,1.234097 -3.021236,2.872924 -3.9375,4.71875 2.538367,-2.076666 5.590411,-3.513452 8.8125,-4.125 2.417899,-0.458914 4.953679,-0.461853 7.34375,0.125 0.298759,0.07336 0.581108,0.15806 0.875,0.25 -0.512449,0.429061 -1.013204,0.883633 -1.46875,1.375 -1.795955,1.937179 -2.995545,4.42176 -3.40625,7.03125 -0.410706,2.60949 -0.02034,5.323561 1.09375,7.718749 -0.359269,-3.848354 0.856118,-7.828359 3.3125,-10.812499 1.143101,-1.388699 2.525015,-2.534797 3.9375,-3.65625 0.730479,0.473121 1.442043,0.982149 2.0625,1.59375 2.20725,2.175744 3.53449,5.176989 3.9375,8.25 0.403011,3.073009 -0.0808,6.229998 -1.1875,9.124999 -1.98686,5.197406 -6.005373,9.616701 -11.0625,11.9375 -5.057127,2.320799 -11.128854,2.466772 -16.21875,0.21875 -4.956722,-2.189204 -8.862445,-6.594777 -10.625,-11.71875 -1.762556,-5.123974 -1.378545,-10.901775 0.84375,-15.843749 2.301661,-5.118469 6.628265,-9.368599 11.9375,-11.1875 4.1995,-1.438715 8.932143,-1.314106 13.0625,0.3125 l -0.21875,-2.9375 c -3.850638,-2.1527436 -8.356573,-3.1181516 -12.75,-2.7187496 -4.393427,0.399402 -8.631937,2.1569186 -12.03125,4.9687496 -3.527327,2.917722 -6.1039193,6.937168 -7.3437493,11.34375 -1.239831,4.406582 -1.14755,9.183825 0.1875,13.562499 1.761901,5.778653 5.6706343,10.837568 10.7187493,14.15625 5.048115,3.318682 11.182231,4.896156 17.21875,4.65625 6.308382,-0.25071 12.621716,-2.545957 17.1875,-6.90625 2.282892,-2.180147 4.095432,-4.862451 5.21875,-7.8125 1.123319,-2.950049 1.553814,-6.15383 1.125,-9.28125 -0.430683,-3.141051 -1.703999,-6.17306 -3.59375,-8.718749 -1.550821,-2.089116 -3.51651,-3.862117 -5.71875,-5.25 1.503026,-1.263106 2.934668,-2.604018 3.9375,-4.28125 1.443985,-2.415064 1.937014,-5.3991176 1.375,-8.1562496 z m -31,31.2812486 c 0.256466,2.324693 1.435396,4.549351 3.21875,6.0625 1.783354,1.513149 4.133323,2.313011 6.46875,2.1875 2.070938,-0.111297 4.104233,-0.936849 5.65625,-2.3125 1.552017,-1.375651 2.609649,-3.301149 2.96875,-5.34375 -1.933577,2.897282 -5.329643,4.76083 -8.8125,4.8125 -1.910296,0.02834 -3.838063,-0.463914 -5.5,-1.40625 -1.661938,-0.942336 -3.043513,-2.346166 -4,-4 z m 33.75,14.15625 c -0.285427,-0.01649 -0.56558,0.02763 -0.84375,0.09375 -0.651136,0.254679 -1.211866,0.753041 -1.53125,1.375 -0.319385,0.621959 -0.391158,1.35367 -0.21875,2.03125 0.210885,0.828796 0.810852,1.562091 1.59375,1.90625 0.782898,0.344159 1.734426,0.282092 2.46875,-0.15625 0.665546,-0.397286 1.147999,-1.080185 1.28125,-1.84375 0.133252,-0.763565 -0.09968,-1.59699 -0.5625,-2.21875 -0.341449,-0.458708 -0.806338,-0.804577 -1.34375,-1 -0.268705,-0.09771 -0.558323,-0.171012 -0.84375,-0.1875 z"
       id="path2995"
       inkscape:connector-curvature="0" />
  </g>
</svg>
