<?xml version="1.0" encoding="UTF-8" standalone="no"?>
<!-- Created with Inkscape (http://www.inkscape.org/) -->

<svg
   xmlns:dc="http://purl.org/dc/elements/1.1/"
   xmlns:cc="http://creativecommons.org/ns#"
   xmlns:rdf="http://www.w3.org/1999/02/22-rdf-syntax-ns#"
   xmlns:svg="http://www.w3.org/2000/svg"
   xmlns="http://www.w3.org/2000/svg"
   xmlns:xlink="http://www.w3.org/1999/xlink"
   xmlns:sodipodi="http://sodipodi.sourceforge.net/DTD/sodipodi-0.dtd"
   xmlns:inkscape="http://www.inkscape.org/namespaces/inkscape"
   width="212.85704"
   height="61.193768"
   id="svg2985"
   version="1.1"
   inkscape:version="0.48.3.1 r9886"
   sodipodi:docname="Title.svg">
  <defs
     id="defs2987">
    <linearGradient
       id="linearGradient3923">
      <stop
         style="stop-color:#9b6c0f;stop-opacity:1;"
         offset="0"
         id="stop3925" />
      <stop
         style="stop-color:#d4ab32;stop-opacity:1;"
         offset="1"
         id="stop3927" />
    </linearGradient>
    <linearGradient
       id="linearGradient3797">
      <stop
         style="stop-color:#c8a243;stop-opacity:1;"
         offset="0"
         id="stop3799" />
      <stop
         id="stop3805"
         offset="0.5"
         style="stop-color:#e5c472;stop-opacity:1;" />
      <stop
         style="stop-color:#d6a11e;stop-opacity:1;"
         offset="0.75"
         id="stop3921" />
      <stop
         style="stop-color:#b58307;stop-opacity:1;"
         offset="1"
         id="stop3801" />
    </linearGradient>
    <inkscape:path-effect
       is_visible="true"
       id="path-effect3017"
       effect="spiro" />
    <inkscape:path-effect
       effect="spiro"
       id="path-effect3013"
       is_visible="true" />
    <inkscape:path-effect
       effect="spiro"
       id="path-effect3009"
       is_visible="true" />
    <inkscape:path-effect
       effect="spiro"
       id="path-effect3005"
       is_visible="true" />
    <inkscape:path-effect
       effect="spiro"
       id="path-effect3001"
       is_visible="true" />
    <inkscape:path-effect
       effect="spiro"
       id="path-effect2997"
       is_visible="true" />
    <radialGradient
       inkscape:collect="always"
       xlink:href="#linearGradient3797"
       id="radialGradient3803"
       cx="31.700048"
       cy="30.072044"
       fx="31.700048"
       fy="30.072044"
       r="28.180935"
       gradientTransform="matrix(0.98948797,-0.00306323,0.00299906,0.96875903,0.24304396,1.036586)"
       gradientUnits="userSpaceOnUse" />
  </defs>
  <sodipodi:namedview
     id="base"
     pagecolor="#ffffff"
     bordercolor="#666666"
     borderopacity="1.0"
     inkscape:pageopacity="0.0"
     inkscape:pageshadow="2"
     inkscape:zoom="1.9446126"
     inkscape:cx="116.18043"
     inkscape:cy="20.950569"
     inkscape:current-layer="layer1"
     showgrid="true"
     inkscape:document-units="px"
     inkscape:grid-bbox="true"
     inkscape:window-width="1280"
     inkscape:window-height="741"
     inkscape:window-x="0"
     inkscape:window-y="27"
     inkscape:window-maximized="1"
     fit-margin-top="0"
     fit-margin-left="0"
     fit-margin-right="0"
     fit-margin-bottom="0" />
  <metadata
     id="metadata2990">
    <rdf:RDF>
      <cc:Work
         rdf:about="">
        <dc:format>image/svg+xml</dc:format>
        <dc:type
           rdf:resource="http://purl.org/dc/dcmitype/StillImage" />
        <dc:title></dc:title>
      </cc:Work>
    </rdf:RDF>
  </metadata>
  <g
     id="layer1"
     inkscape:label="Layer 1"
     inkscape:groupmode="layer"
     transform="translate(0.2945388,0.52508461)">
    <path
       sodipodi:type="inkscape:offset"
       inkscape:radius="1.0100652"
       inkscape:original="M 67.6875 6.5 L 67.6875 55.5 L 72.59375 55.5 L 72.59375 10.9375 L 79.5 10.9375 C 84.671337 10.9375 88.129283 11.459065 90.78125 12.71875 C 94.09621 14.30993 95.9375 17.620455 95.9375 22.0625 C 95.9375 27.631632 93.437391 31.080266 88.53125 32.40625 C 86.210778 33.002943 82.999034 33.28125 77.5625 33.28125 L 94.09375 55.5 L 100.1875 55.5 L 86.46875 37.1875 C 95.883234 36.193013 100.90625 30.966444 100.90625 22.28125 C 100.90625 16.115425 98.336041 11.46067 93.5625 8.875 C 90.512738 7.2175202 86.274772 6.5 79.84375 6.5 L 67.6875 6.5 z M 155.375 13.09375 C 150.60145 13.09375 146.73727 15.210295 143.6875 19.4375 L 143.6875 14.09375 L 138.78125 14.09375 L 138.78125 55.375 L 143.6875 55.375 L 143.6875 32.65625 C 143.6875 28.051616 144.23273 25.621312 145.625 23.28125 C 147.54769 20.110846 150.9359 18.21875 154.78125 18.21875 C 158.36141 18.21875 161.60478 19.894524 163.59375 22.6875 C 165.31754 25.254019 165.96875 28.283771 165.96875 33.71875 L 165.96875 55.375 L 170.875 55.375 L 170.875 33.71875 C 170.875 26.774055 170.00798 23.047836 167.6875 19.5 C 164.83663 15.423767 160.48004 13.09375 155.375 13.09375 z M 192.65625 13.09375 C 182.11467 13.09375 173.84375 22.529002 173.84375 34.53125 C 173.84375 46.759957 182.25954 56.34375 193 56.34375 C 197.64094 56.34375 202.02879 54.391587 205.34375 50.84375 C 207.92942 48.050775 209.6305 45.178114 210.625 41.78125 L 205.53125 41.78125 C 203.47597 47.442687 198.37784 51.21875 192.875 51.21875 C 185.44948 51.21875 179.1478 44.714971 178.75 36.5625 L 211.5625 36.5625 C 211.5625 30.901063 210.88385 27.435821 209.09375 23.8125 C 205.8451 17.245233 199.55137 13.09375 192.65625 13.09375 z M 103.875 14.09375 L 103.875 36.34375 C 103.875 42.458105 104.79607 46.761816 106.71875 49.78125 C 109.43702 54.083943 113.81347 56.34375 119.25 56.34375 C 124.88543 56.34375 128.48443 54.101788 130.9375 48.96875 L 130.9375 55.375 L 135.84375 55.375 L 135.84375 14.09375 L 130.9375 14.09375 L 130.9375 35.28125 C 130.9375 40.338802 130.27488 43.527233 128.75 46.09375 C 126.69474 49.339644 123.4353 51.21875 119.65625 51.21875 C 115.612 51.21875 112.15747 49.32138 110.5 46 C 109.3729 43.886398 108.78125 40.570959 108.78125 36.34375 L 108.78125 14.09375 L 103.875 14.09375 z M 192.59375 18.21875 C 199.62147 18.21875 204.99876 23.303295 206.65625 31.53125 L 178.875 31.53125 C 180.20099 23.605239 185.69862 18.21875 192.59375 18.21875 z "
       style="font-size:40px;font-style:normal;font-variant:normal;font-stretch:normal;line-height:125%;letter-spacing:0px;word-spacing:0px;fill:#999999;fill-opacity:1;stroke:none;font-family:URW Gothic L;-inkscape-font-specification:URW Gothic L Book"
       id="path3024"
       d="m 67.5,5.5 a 1.0101662,1.0101662 0 0 0 -0.8125,1 l 0,49 a 1.0101662,1.0101662 0 0 0 1,1 l 4.90625,0 a 1.0101662,1.0101662 0 0 0 1,-1 l 0,-43.5625 5.90625,0 c 5.103422,0 8.401553,0.527456 10.84375,1.6875 2.953777,1.417812 4.59375,4.274579 4.59375,8.4375 0,2.633419 -0.598646,4.671515 -1.6875,6.1875 -1.088854,1.515985 -2.686878,2.570778 -4.96875,3.1875 -2.176124,0.559575 -5.316687,0.84375 -10.71875,0.84375 A 1.0101662,1.0101662 0 0 0 76.75,33.875 L 93.28125,56.09375 A 1.0101662,1.0101662 0 0 0 94.09375,56.5 l 6.09375,0 A 1.0101662,1.0101662 0 0 0 101,54.90625 l -12.75,-17 c 4.061686,-0.690189 7.3727,-2.198981 9.6875,-4.59375 2.63504,-2.72607 3.96875,-6.493932 3.96875,-11.03125 0,-6.44652 -2.788581,-11.526104 -7.875,-14.28125 C 90.744007,6.2134543 86.349902,5.5 79.84375,5.5 L 67.6875,5.5 A 1.0101662,1.0101662 0 0 0 67.5,5.5 z m 87.875,6.59375 c -4.18593,0 -7.75548,1.674835 -10.6875,4.71875 l 0,-2.71875 a 1.0101662,1.0101662 0 0 0 -1,-1 l -4.90625,0 a 1.0101662,1.0101662 0 0 0 -1,1 l 0,41.28125 a 1.0101662,1.0101662 0 0 0 1,1 l 4.90625,0 a 1.0101662,1.0101662 0 0 0 1,-1 l 0,-22.71875 c 0,-4.5249 0.51811,-6.668202 1.8125,-8.84375 1.74226,-2.872887 4.76723,-4.59375 8.28125,-4.59375 3.24946,0 6.16791,1.526937 7.96875,4.03125 0.009,0.01196 0.0227,0.01925 0.0312,0.03125 1.56828,2.351699 2.1875,5.107685 2.1875,10.4375 l 0,21.65625 a 1.0101662,1.0101662 0 0 0 1,1 l 4.90625,0 a 1.0101662,1.0101662 0 0 0 1,-1 l 0,-21.65625 c 0,-7.028764 -0.90902,-11.058737 -3.34375,-14.78125 A 1.0101662,1.0101662 0 0 0 168.5,18.90625 c -3.02425,-4.324135 -7.71262,-6.8125 -13.125,-6.8125 z m 37.28125,0 c -11.14429,0 -19.8125,9.971218 -19.8125,22.4375 0,12.692125 8.81493,22.8125 20.15625,22.8125 4.92419,0 9.60142,-2.074833 13.09375,-5.8125 2.6702,-2.884277 4.46138,-5.92118 5.5,-9.46875 A 1.0101662,1.0101662 0 0 0 210.625,40.78125 l -5.09375,0 a 1.0101662,1.0101662 0 0 0 -0.9375,0.65625 c -1.92161,5.293244 -6.67798,8.78125 -11.71875,8.78125 -6.51281,0 -12.12438,-5.513771 -12.96875,-12.65625 l 31.65625,0 a 1.0101662,1.0101662 0 0 0 1,-1 c 0,-5.742156 -0.70403,-9.425783 -2.5625,-13.1875 -3.40352,-6.880345 -10.0432,-11.28125 -17.34375,-11.28125 z m -88.96875,1 a 1.0101662,1.0101662 0 0 0 -0.8125,1 l 0,22.25 c 0,6.215793 0.92226,10.705801 3,13.96875 2.89444,4.581549 7.65857,7.03125 13.375,7.03125 4.63747,0 8.13662,-1.650026 10.6875,-4.9375 l 0,2.96875 a 1.0101662,1.0101662 0 0 0 1,1 l 4.90625,0 a 1.0101662,1.0101662 0 0 0 1,-1 l 0,-41.28125 a 1.0101662,1.0101662 0 0 0 -1,-1 l -4.90625,0 a 1.0101662,1.0101662 0 0 0 -1,1 l 0,21.1875 c 0,4.969329 -0.65963,7.920082 -2.0625,10.28125 l 0.0312,0 c -1.89131,2.986959 -4.80578,4.65625 -8.25,4.65625 -3.72833,0 -6.77428,-1.69908 -8.25,-4.65625 a 1.0101662,1.0101662 0 0 0 0,-0.03125 c -0.9898,-1.856127 -1.625,-5.054538 -1.625,-9.1875 l 0,-22.25 a 1.0101662,1.0101662 0 0 0 -1,-1 l -4.90625,0 a 1.0101662,1.0101662 0 0 0 -0.1875,0 z m 88.90625,6.125 c 6.17233,0 10.80496,4.217232 12.65625,11.3125 l -25,0 c 1.59236,-6.836778 6.33465,-11.3125 12.34375,-11.3125 z" />
    <path
       sodipodi:type="inkscape:offset"
       inkscape:radius="1.8730828"
       inkscape:original="M 6.96875 3.3125 C 6.750668 3.33137 6.5567581 3.386869 6.34375 3.4375 C 5.3465371 3.8275393 4.4891364 4.5787219 4 5.53125 C 3.5108636 6.4837781 3.3922072 7.6185383 3.65625 8.65625 C 3.9792193 9.9255479 4.8947443 11.035421 6.09375 11.5625 C 7.2927556 12.089578 8.7503856 12.015069 9.875 11.34375 C 10.894281 10.735308 11.608425 9.6693975 11.8125 8.5 C 12.016575 7.3306026 11.708807 6.0772232 11 5.125 C 10.477071 4.4224894 9.7292941 3.8930387 8.90625 3.59375 C 8.2889669 3.3692835 7.6229959 3.2558897 6.96875 3.3125 z M 54.34375 5.78125 C 54.057166 7.9836597 53.158613 10.126616 51.75 11.84375 C 50.335577 13.567966 48.479747 14.855436 46.625 16.09375 C 46.384834 16.254096 46.146828 16.432861 45.90625 16.59375 C 43.569787 15.601013 41.065863 15.021865 38.53125 15.03125 C 35.39174 15.04288 32.233047 15.963598 29.71875 17.84375 C 28.068411 19.077847 26.697514 20.716674 25.78125 22.5625 C 28.319617 20.485834 31.371661 19.049048 34.59375 18.4375 C 37.011649 17.978586 39.547429 17.975647 41.9375 18.5625 C 42.236259 18.63586 42.518608 18.72056 42.8125 18.8125 C 42.300051 19.241561 41.799296 19.696133 41.34375 20.1875 C 39.547795 22.124679 38.348205 24.60926 37.9375 27.21875 C 37.526794 29.82824 37.91716 32.542312 39.03125 34.9375 C 38.671981 31.089146 39.887368 27.10914 42.34375 24.125 C 43.486851 22.736301 44.868765 21.590203 46.28125 20.46875 C 47.011729 20.941871 47.723293 21.450899 48.34375 22.0625 C 50.551 24.238244 51.87824 27.239489 52.28125 30.3125 C 52.684261 33.38551 52.20045 36.542499 51.09375 39.4375 C 49.10689 44.634906 45.088377 49.054201 40.03125 51.375 C 34.974123 53.695799 28.902396 53.841772 23.8125 51.59375 C 18.855778 49.404546 14.950055 44.998973 13.1875 39.875 C 11.424944 34.751026 11.808955 28.973224 14.03125 24.03125 C 16.332911 18.912781 20.659515 14.662651 25.96875 12.84375 C 30.16825 11.405035 34.900893 11.529644 39.03125 13.15625 L 38.8125 10.21875 C 34.961862 8.0660056 30.455927 7.1005977 26.0625 7.5 C 21.669073 7.8994024 17.430563 9.6569192 14.03125 12.46875 C 10.503922 15.386472 7.9273307 19.405918 6.6875 23.8125 C 5.4476693 28.219082 5.53995 32.996326 6.875 37.375 C 8.6369009 43.153653 12.545635 48.212568 17.59375 51.53125 C 22.641865 54.849932 28.775981 56.427406 34.8125 56.1875 C 41.120882 55.93679 47.434216 53.641543 52 49.28125 C 54.282892 47.101103 56.095432 44.418799 57.21875 41.46875 C 58.342069 38.518701 58.772564 35.31492 58.34375 32.1875 C 57.913067 29.046448 56.639751 26.014439 54.75 23.46875 C 53.199179 21.379634 51.23349 19.606633 49.03125 18.21875 C 50.534276 16.955644 51.965918 15.614732 52.96875 13.9375 C 54.412735 11.522436 54.905764 8.5383815 54.34375 5.78125 z M 23.34375 37.0625 C 23.600216 39.387193 24.779146 41.611851 26.5625 43.125 C 28.345854 44.638149 30.695823 45.438011 33.03125 45.3125 C 35.102188 45.201203 37.135483 44.375651 38.6875 43 C 40.239517 41.624349 41.297149 39.698851 41.65625 37.65625 C 39.722673 40.553532 36.326607 42.41708 32.84375 42.46875 C 30.933454 42.49709 29.005687 42.004836 27.34375 41.0625 C 25.681812 40.120164 24.300237 38.716334 23.34375 37.0625 z M 57.09375 51.21875 C 56.808323 51.20226 56.52817 51.24638 56.25 51.3125 C 55.598864 51.567179 55.038134 52.065541 54.71875 52.6875 C 54.399365 53.309459 54.327592 54.04117 54.5 54.71875 C 54.710885 55.547546 55.310852 56.280841 56.09375 56.625 C 56.876648 56.969159 57.828176 56.907092 58.5625 56.46875 C 59.228046 56.071464 59.710499 55.388565 59.84375 54.625 C 59.977002 53.861435 59.74407 53.02801 59.28125 52.40625 C 58.939801 51.947542 58.474912 51.601673 57.9375 51.40625 C 57.668795 51.30854 57.379177 51.235238 57.09375 51.21875 z "
       style="opacity:0.94177215999999997;fill:#786218;fill-opacity:1;stroke:none;"
       id="path3027"
       d="M 6.8125,1.4375 C 6.3751738,1.4753406 6.0684723,1.5864405 5.90625,1.625 a 1.8732701,1.8732701 0 0 0 -0.25,0.0625 c -1.4178016,0.5545439 -2.5998504,1.6122097 -3.3125,3 -0.7090484,1.3807774 -0.8775786,2.9535827 -0.5,4.4375 0.4672204,1.836217 1.7357687,3.3807 3.5,4.15625 1.7705167,0.778312 3.8161326,0.661405 5.5,-0.34375 -2.7953822,2.915552 -4.8744,6.485483 -5.96875,10.375 -1.341988,4.769668 -1.2201191,9.874572 0.21875,14.59375 1.8983441,6.226157 6.061375,11.632637 11.46875,15.1875 5.402451,3.551626 11.900124,5.223593 18.3125,4.96875 6.712095,-0.266755 13.454204,-2.708329 18.40625,-7.4375 2.479717,-2.368113 4.4601,-5.27661 5.6875,-8.5 1.227173,-3.222791 1.69387,-6.722361 1.21875,-10.1875 -0.476142,-3.47259 -1.863498,-6.799856 -3.9375,-9.59375 -1.221113,-1.644966 -2.709857,-3.034052 -4.3125,-4.28125 0.958225,-0.927277 1.884181,-1.917234 2.625,-3.15625 1.696359,-2.837159 2.282663,-6.2736309 1.625,-9.5 A 1.8732701,1.8732701 0 0 0 52.5,5.53125 c -0.242001,1.859788 -1.015812,3.6966838 -2.1875,5.125 -1.19486,1.456563 -2.882761,2.64921 -4.71875,3.875 -1.520817,-0.563619 -3.092185,-0.924931 -4.71875,-1.125 a 1.8732701,1.8732701 0 0 0 0.03125,-0.375 l -0.21875,-2.9375 a 1.8732701,1.8732701 0 0 0 -0.96875,-1.5 C 35.533052,6.2536862 30.685702,5.1905045 25.90625,5.625 c -4.778655,0.4344231 -9.36933,2.3513476 -13.0625,5.40625 -0.05668,0.04689 -0.100028,0.108853 -0.15625,0.15625 0.478969,-0.70588 0.819669,-1.5207322 0.96875,-2.375 C 13.954121,7.1056283 13.523821,5.3754179 12.5,4 11.735533,2.9730036 10.678612,2.2609724 9.53125,1.84375 8.6977358,1.540654 7.7895276,1.3529602 6.8125,1.4375 z m 25.65625,12.28125 c 0.439675,0.0108 0.874953,0.112606 1.3125,0.15625 -1.839258,0.520842 -3.625126,1.300431 -5.1875,2.46875 -1.888845,1.412448 -3.449221,3.258192 -4.5,5.375 A 1.8732701,1.8732701 0 0 0 26.96875,24 c 2.296562,-1.878843 5.061809,-3.167017 7.96875,-3.71875 1.396747,-0.265101 2.819822,-0.288874 4.21875,-0.1875 -1.535485,2.013947 -2.668164,4.338265 -3.0625,6.84375 -0.47006,2.986605 -0.02173,6.047157 1.25,8.78125 A 1.8732701,1.8732701 0 0 0 40.375,36.28125 1.8732701,1.8732701 0 0 0 40.90625,34.75 c -0.311818,-3.340078 0.7453,-6.85023 2.875,-9.4375 0.706576,-0.858385 1.663203,-1.625447 2.59375,-2.40625 0.207036,0.1664 0.480043,0.326308 0.65625,0.5 1.861301,1.834733 3.051738,4.453044 3.40625,7.15625 0.356373,2.717387 -0.08421,5.577919 -1.09375,8.21875 C 47.531229,43.522605 43.829754,47.585776 39.25,49.6875 34.682353,51.783668 29.121399,51.8885 24.5625,49.875 20.12268,47.914093 16.561874,43.912665 14.96875,39.28125 13.374292,34.645957 13.718559,29.330051 15.75,24.8125 c 2.100637,-4.671428 6.054434,-8.557425 10.8125,-10.1875 1.879974,-0.644064 3.897323,-0.955621 5.90625,-0.90625 z M 40.375,36.28125 A 1.8732701,1.8732701 0 0 0 40.09375,36.625 c -1.577301,2.363437 -4.44826,3.926721 -7.28125,3.96875 -1.569937,0.02329 -3.166471,-0.382406 -4.53125,-1.15625 -1.35506,-0.768333 -2.517382,-1.937684 -3.3125,-3.3125 a 1.8732701,1.8732701 0 0 0 -3.5,1.15625 c 0.310791,2.817111 1.71157,5.445612 3.875,7.28125 2.154023,1.827656 4.952758,2.777009 7.78125,2.625 2.500971,-0.134408 4.931151,-1.113692 6.8125,-2.78125 1.885181,-1.670955 3.12956,-3.974896 3.5625,-6.4375 a 1.8732701,1.8732701 0 0 0 -3.125,-1.6875 z m 16.8125,13.0625 C 56.639557,49.312094 56.183562,49.4118 55.8125,49.5 a 1.8732701,1.8732701 0 0 0 -0.25,0.0625 c -1.083383,0.423744 -1.959394,1.228491 -2.5,2.28125 -0.539995,1.051567 -0.657506,2.233476 -0.375,3.34375 0.35513,1.39569 1.298773,2.559508 2.65625,3.15625 1.370697,0.602553 2.90852,0.482215 4.1875,-0.28125 1.134614,-0.677288 1.923884,-1.793476 2.15625,-3.125 0.236487,-1.355126 -0.144459,-2.632847 -0.90625,-3.65625 -0.558412,-0.750179 -1.340316,-1.305569 -2.21875,-1.625 -0.392189,-0.142613 -0.843309,-0.281786 -1.375,-0.3125 z" />
    <path
       style="fill:url(#radialGradient3803);fill-opacity:1;stroke:none"
       d="M 6.96875,3.3125 C 6.750668,3.33137 6.5567581,3.386869 6.34375,3.4375 5.3465371,3.8275393 4.4891364,4.5787219 4,5.53125 3.5108636,6.4837781 3.3922072,7.6185383 3.65625,8.65625 3.9792193,9.9255479 4.8947443,11.035421 6.09375,11.5625 7.2927556,12.089578 8.7503856,12.015069 9.875,11.34375 10.894281,10.735308 11.608425,9.6693975 11.8125,8.5 12.016575,7.3306026 11.708807,6.0772232 11,5.125 10.477071,4.4224894 9.7292941,3.8930387 8.90625,3.59375 8.2889669,3.3692835 7.6229959,3.2558897 6.96875,3.3125 z m 47.375,2.46875 c -0.286584,2.2024097 -1.185137,4.345366 -2.59375,6.0625 -1.414423,1.724216 -3.270253,3.011686 -5.125,4.25 -0.240166,0.160346 -0.478172,0.339111 -0.71875,0.5 -2.336463,-0.992737 -4.840387,-1.571885 -7.375,-1.5625 -3.13951,0.01163 -6.298203,0.932348 -8.8125,2.8125 -1.650339,1.234097 -3.021236,2.872924 -3.9375,4.71875 2.538367,-2.076666 5.590411,-3.513452 8.8125,-4.125 2.417899,-0.458914 4.953679,-0.461853 7.34375,0.125 0.298759,0.07336 0.581108,0.15806 0.875,0.25 -0.512449,0.429061 -1.013204,0.883633 -1.46875,1.375 -1.795955,1.937179 -2.995545,4.42176 -3.40625,7.03125 -0.410706,2.60949 -0.02034,5.323562 1.09375,7.71875 -0.359269,-3.848354 0.856118,-7.82836 3.3125,-10.8125 1.143101,-1.388699 2.525015,-2.534797 3.9375,-3.65625 0.730479,0.473121 1.442043,0.982149 2.0625,1.59375 2.20725,2.175744 3.53449,5.176989 3.9375,8.25 0.403011,3.07301 -0.0808,6.229999 -1.1875,9.125 -1.98686,5.197406 -6.005373,9.616701 -11.0625,11.9375 -5.057127,2.320799 -11.128854,2.466772 -16.21875,0.21875 -4.956722,-2.189204 -8.862445,-6.594777 -10.625,-11.71875 -1.762556,-5.123974 -1.378545,-10.901776 0.84375,-15.84375 2.301661,-5.118469 6.628265,-9.368599 11.9375,-11.1875 4.1995,-1.438715 8.932143,-1.314106 13.0625,0.3125 L 38.8125,10.21875 C 34.961862,8.0660056 30.455927,7.1005977 26.0625,7.5 21.669073,7.8994024 17.430563,9.6569192 14.03125,12.46875 10.503922,15.386472 7.9273307,19.405918 6.6875,23.8125 5.4476693,28.219082 5.53995,32.996326 6.875,37.375 c 1.7619009,5.778653 5.670635,10.837568 10.71875,14.15625 5.048115,3.318682 11.182231,4.896156 17.21875,4.65625 6.308382,-0.25071 12.621716,-2.545957 17.1875,-6.90625 2.282892,-2.180147 4.095432,-4.862451 5.21875,-7.8125 1.123319,-2.950049 1.553814,-6.15383 1.125,-9.28125 -0.430683,-3.141052 -1.703999,-6.173061 -3.59375,-8.71875 -1.550821,-2.089116 -3.51651,-3.862117 -5.71875,-5.25 1.503026,-1.263106 2.934668,-2.604018 3.9375,-4.28125 1.443985,-2.415064 1.937014,-5.3991185 1.375,-8.15625 z m -31,31.28125 c 0.256466,2.324693 1.435396,4.549351 3.21875,6.0625 1.783354,1.513149 4.133323,2.313011 6.46875,2.1875 2.070938,-0.111297 4.104233,-0.936849 5.65625,-2.3125 1.552017,-1.375651 2.609649,-3.301149 2.96875,-5.34375 -1.933577,2.897282 -5.329643,4.76083 -8.8125,4.8125 -1.910296,0.02834 -3.838063,-0.463914 -5.5,-1.40625 -1.661938,-0.942336 -3.043513,-2.346166 -4,-4 z m 33.75,14.15625 c -0.285427,-0.01649 -0.56558,0.02763 -0.84375,0.09375 -0.651136,0.254679 -1.211866,0.753041 -1.53125,1.375 -0.319385,0.621959 -0.391158,1.35367 -0.21875,2.03125 0.210885,0.828796 0.810852,1.562091 1.59375,1.90625 0.782898,0.344159 1.734426,0.282092 2.46875,-0.15625 0.665546,-0.397286 1.147999,-1.080185 1.28125,-1.84375 0.133252,-0.763565 -0.09968,-1.59699 -0.5625,-2.21875 -0.341449,-0.458708 -0.806338,-0.804577 -1.34375,-1 -0.268705,-0.09771 -0.558323,-0.171012 -0.84375,-0.1875 z"
       id="path2995"
       inkscape:connector-curvature="0" />
    <path
       style="font-size:40px;font-style:normal;font-variant:normal;font-stretch:normal;line-height:125%;letter-spacing:0px;word-spacing:0px;fill:#333333;fill-opacity:1;stroke:none;font-family:URW Gothic L;-inkscape-font-specification:URW Gothic L Book"
       d="m 67.6875,6.5 0,49 4.90625,0 0,-44.5625 6.90625,0 c 5.171337,0 8.629283,0.521565 11.28125,1.78125 3.31496,1.59118 5.15625,4.901705 5.15625,9.34375 0,5.569132 -2.500109,9.017766 -7.40625,10.34375 -2.320472,0.596693 -5.532216,0.875 -10.96875,0.875 L 94.09375,55.5 l 6.09375,0 -13.71875,-18.3125 c 9.414484,-0.994487 14.4375,-6.221056 14.4375,-14.90625 0,-6.165825 -2.570209,-10.82058 -7.34375,-13.40625 C 90.512738,7.2175202 86.274772,6.5 79.84375,6.5 l -12.15625,0 z m 87.6875,6.59375 c -4.77355,0 -8.63773,2.116545 -11.6875,6.34375 l 0,-5.34375 -4.90625,0 0,41.28125 4.90625,0 0,-22.71875 c 0,-4.604634 0.54523,-7.034938 1.9375,-9.375 1.92269,-3.170404 5.3109,-5.0625 9.15625,-5.0625 3.58016,0 6.82353,1.675774 8.8125,4.46875 1.72379,2.566519 2.375,5.596271 2.375,11.03125 l 0,21.65625 4.90625,0 0,-21.65625 c 0,-6.944695 -0.86702,-10.670914 -3.1875,-14.21875 -2.85087,-4.076233 -7.20746,-6.40625 -12.3125,-6.40625 z m 37.28125,0 c -10.54158,0 -18.8125,9.435252 -18.8125,21.4375 0,12.228707 8.41579,21.8125 19.15625,21.8125 4.64094,0 9.02879,-1.952163 12.34375,-5.5 2.58567,-2.792975 4.28675,-5.665636 5.28125,-9.0625 l -5.09375,0 c -2.05528,5.661437 -7.15341,9.4375 -12.65625,9.4375 -7.42552,0 -13.7272,-6.503779 -14.125,-14.65625 l 32.8125,0 c 0,-5.661437 -0.67865,-9.126679 -2.46875,-12.75 -3.24865,-6.567267 -9.54238,-10.71875 -16.4375,-10.71875 z m -88.78125,1 0,22.25 c 0,6.114355 0.92107,10.418066 2.84375,13.4375 2.71827,4.302693 7.09472,6.5625 12.53125,6.5625 5.63543,0 9.23443,-2.241962 11.6875,-7.375 l 0,6.40625 4.90625,0 0,-41.28125 -4.90625,0 0,21.1875 c 0,5.057552 -0.66262,8.245983 -2.1875,10.8125 -2.05526,3.245894 -5.3147,5.125 -9.09375,5.125 -4.04425,0 -7.49878,-1.89737 -9.15625,-5.21875 -1.1271,-2.113602 -1.71875,-5.429041 -1.71875,-9.65625 l 0,-22.25 -4.90625,0 z m 88.71875,4.125 c 7.02772,0 12.40501,5.084545 14.0625,13.3125 l -27.78125,0 c 1.32599,-7.926011 6.82362,-13.3125 13.71875,-13.3125 z"
       id="path3009"
       inkscape:connector-curvature="0" />
  </g>
</svg>
