<?xml version="1.0" encoding="UTF-8" standalone="no"?>
<!-- Created with Inkscape (http://www.inkscape.org/) -->

<svg
   xmlns:dc="http://purl.org/dc/elements/1.1/"
   xmlns:cc="http://creativecommons.org/ns#"
   xmlns:rdf="http://www.w3.org/1999/02/22-rdf-syntax-ns#"
   xmlns:svg="http://www.w3.org/2000/svg"
   xmlns="http://www.w3.org/2000/svg"
   xmlns:xlink="http://www.w3.org/1999/xlink"
   xmlns:sodipodi="http://sodipodi.sourceforge.net/DTD/sodipodi-0.dtd"
   xmlns:inkscape="http://www.inkscape.org/namespaces/inkscape"
   width="212.85704"
   height="61.193768"
   id="svg2985"
   version="1.1"
   inkscape:version="0.48.4 r9939"
   sodipodi:docname="Title.svg">
  <defs
     id="defs2987">
    <linearGradient
       id="linearGradient3923">
      <stop
         style="stop-color:#9b6c0f;stop-opacity:1;"
         offset="0"
         id="stop3925" />
      <stop
         style="stop-color:#d4ab32;stop-opacity:1;"
         offset="1"
         id="stop3927" />
    </linearGradient>
    <linearGradient
       id="linearGradient3797">
      <stop
         style="stop-color:#c8a243;stop-opacity:1;"
         offset="0"
         id="stop3799" />
      <stop
         id="stop3775"
         offset="0.24755031"
         style="stop-color:#d49700;stop-opacity:1;" />
      <stop
         id="stop3805"
         offset="0.49510062"
         style="stop-color:#e5d772;stop-opacity:1;" />
      <stop
         style="stop-color:#efcf82;stop-opacity:1;"
         offset="0.59300888"
         id="stop3921" />
      <stop
         id="stop3773"
         offset="0.79650444"
         style="stop-color:#dfbf43;stop-opacity:1;" />
      <stop
         style="stop-color:#b58307;stop-opacity:1;"
         offset="1"
         id="stop3801" />
    </linearGradient>
    <inkscape:path-effect
       is_visible="true"
       id="path-effect3017"
       effect="spiro" />
    <inkscape:path-effect
       effect="spiro"
       id="path-effect3013"
       is_visible="true" />
    <inkscape:path-effect
       effect="spiro"
       id="path-effect3009"
       is_visible="true" />
    <inkscape:path-effect
       effect="spiro"
       id="path-effect3005"
       is_visible="true" />
    <inkscape:path-effect
       effect="spiro"
       id="path-effect3001"
       is_visible="true" />
    <inkscape:path-effect
       effect="spiro"
       id="path-effect2997"
       is_visible="true" />
    <linearGradient
       inkscape:collect="always"
       xlink:href="#linearGradient3797"
       id="linearGradient3771"
       x1="49.832115"
       y1="7.250885"
       x2="16.414347"
       y2="51.048416"
       gradientUnits="userSpaceOnUse"
       gradientTransform="translate(-1.8807603,-0.07227955)" />
    <linearGradient
       inkscape:collect="always"
       xlink:href="#linearGradient3797-4"
       id="linearGradient3771-0"
       x1="49.832115"
       y1="7.250885"
       x2="16.414347"
       y2="51.048416"
       gradientUnits="userSpaceOnUse"
       gradientTransform="translate(-1.8807603,-0.07227955)" />
    <linearGradient
       id="linearGradient3797-4">
      <stop
         style="stop-color:#c8a243;stop-opacity:1;"
         offset="0"
         id="stop3799-2" />
      <stop
         id="stop3775-8"
         offset="0.24755031"
         style="stop-color:#d49700;stop-opacity:1;" />
      <stop
         id="stop3805-9"
         offset="0.49510062"
         style="stop-color:#e5d772;stop-opacity:1;" />
      <stop
         style="stop-color:#efcf82;stop-opacity:1;"
         offset="0.59300888"
         id="stop3921-9" />
      <stop
         id="stop3773-7"
         offset="0.79650444"
         style="stop-color:#dfbf43;stop-opacity:1;" />
      <stop
         style="stop-color:#b58307;stop-opacity:1;"
         offset="1"
         id="stop3801-0" />
    </linearGradient>
    <linearGradient
       y2="51.048416"
       x2="16.414347"
       y1="7.250885"
       x1="49.832115"
       gradientTransform="translate(114.28036,-22.357497)"
       gradientUnits="userSpaceOnUse"
       id="linearGradient3810"
       xlink:href="#linearGradient3797-4"
       inkscape:collect="always" />
    <linearGradient
       inkscape:collect="always"
       xlink:href="#linearGradient3797-4"
       id="linearGradient3839"
       gradientUnits="userSpaceOnUse"
       gradientTransform="translate(72.177485,12.800576)"
       x1="49.832115"
       y1="7.250885"
       x2="16.414347"
       y2="51.048416" />
  </defs>
  <sodipodi:namedview
     id="base"
     pagecolor="#ffffff"
     bordercolor="#666666"
     borderopacity="1.0"
     inkscape:pageopacity="0.0"
     inkscape:pageshadow="2"
     inkscape:zoom="2.3038805"
     inkscape:cx="136.74777"
     inkscape:cy="35.529349"
     inkscape:current-layer="layer1"
     showgrid="true"
     inkscape:document-units="px"
     inkscape:grid-bbox="true"
     inkscape:window-width="1280"
     inkscape:window-height="741"
     inkscape:window-x="0"
     inkscape:window-y="27"
     inkscape:window-maximized="1"
     fit-margin-top="0"
     fit-margin-left="0"
     fit-margin-right="0"
     fit-margin-bottom="0" />
  <metadata
     id="metadata2990">
    <rdf:RDF>
      <cc:Work
         rdf:about="">
        <dc:format>image/svg+xml</dc:format>
        <dc:type
           rdf:resource="http://purl.org/dc/dcmitype/StillImage" />
        <dc:title />
      </cc:Work>
    </rdf:RDF>
  </metadata>
  <g
     id="layer1"
     inkscape:label="Layer 1"
     inkscape:groupmode="layer"
     transform="translate(0.2945388,0.52508461)">
    <path
       sodipodi:type="inkscape:offset"
       inkscape:radius="0.76382929"
       inkscape:original="M 67.5 5.5 A 1.0101662 1.0101662 0 0 0 66.6875 6.5 L 66.6875 55.5 A 1.0101662 1.0101662 0 0 0 67.6875 56.5 L 72.59375 56.5 A 1.0101662 1.0101662 0 0 0 73.59375 55.5 L 73.59375 11.9375 L 79.5 11.9375 C 84.603422 11.9375 87.901553 12.464956 90.34375 13.625 C 93.297527 15.042812 94.9375 17.899579 94.9375 22.0625 C 94.9375 24.695919 94.338854 26.734015 93.25 28.25 C 92.161146 29.765985 90.563122 30.820778 88.28125 31.4375 C 86.105126 31.997075 82.964563 32.28125 77.5625 32.28125 A 1.0101662 1.0101662 0 0 0 76.75 33.875 L 93.28125 56.09375 A 1.0101662 1.0101662 0 0 0 94.09375 56.5 L 100.1875 56.5 A 1.0101662 1.0101662 0 0 0 101 54.90625 L 88.25 37.90625 C 92.311686 37.216061 95.6227 35.707269 97.9375 33.3125 C 100.57254 30.58643 101.90625 26.818568 101.90625 22.28125 C 101.90625 15.83473 99.117669 10.755146 94.03125 8 C 90.744007 6.2134543 86.349902 5.5 79.84375 5.5 L 67.6875 5.5 A 1.0101662 1.0101662 0 0 0 67.5 5.5 z M 155.375 12.09375 C 151.18907 12.09375 147.61952 13.768585 144.6875 16.8125 L 144.6875 14.09375 A 1.0101662 1.0101662 0 0 0 143.6875 13.09375 L 138.78125 13.09375 A 1.0101662 1.0101662 0 0 0 137.78125 14.09375 L 137.78125 55.375 A 1.0101662 1.0101662 0 0 0 138.78125 56.375 L 143.6875 56.375 A 1.0101662 1.0101662 0 0 0 144.6875 55.375 L 144.6875 32.65625 C 144.6875 28.13135 145.20561 25.988048 146.5 23.8125 C 148.24226 20.939613 151.26723 19.21875 154.78125 19.21875 C 158.03071 19.21875 160.94916 20.745687 162.75 23.25 C 162.7586 23.261955 162.7727 23.269249 162.78125 23.28125 C 164.34953 25.632949 164.96875 28.388935 164.96875 33.71875 L 164.96875 55.375 A 1.0101662 1.0101662 0 0 0 165.96875 56.375 L 170.875 56.375 A 1.0101662 1.0101662 0 0 0 171.875 55.375 L 171.875 33.71875 C 171.875 26.689986 170.96598 22.660013 168.53125 18.9375 A 1.0101662 1.0101662 0 0 0 168.5 18.90625 C 165.47575 14.582115 160.78738 12.09375 155.375 12.09375 z M 192.65625 12.09375 C 181.51196 12.09375 172.84375 22.064968 172.84375 34.53125 C 172.84375 47.223375 181.65868 57.34375 193 57.34375 C 197.92419 57.34375 202.60142 55.268917 206.09375 51.53125 C 208.76395 48.646973 210.55513 45.61007 211.59375 42.0625 A 1.0101662 1.0101662 0 0 0 210.625 40.78125 L 205.53125 40.78125 A 1.0101662 1.0101662 0 0 0 204.59375 41.4375 C 202.67214 46.730744 197.91577 50.21875 192.875 50.21875 C 186.36219 50.21875 180.75062 44.704979 179.90625 37.5625 L 211.5625 37.5625 A 1.0101662 1.0101662 0 0 0 212.5625 36.5625 C 212.5625 30.820344 211.85847 27.136717 210 23.375 C 206.59648 16.494655 199.9568 12.09375 192.65625 12.09375 z M 103.6875 13.09375 A 1.0101662 1.0101662 0 0 0 102.875 14.09375 L 102.875 36.34375 C 102.875 42.559543 103.79726 47.049551 105.875 50.3125 C 108.76944 54.894049 113.53357 57.34375 119.25 57.34375 C 123.88747 57.34375 127.38662 55.693724 129.9375 52.40625 L 129.9375 55.375 A 1.0101662 1.0101662 0 0 0 130.9375 56.375 L 135.84375 56.375 A 1.0101662 1.0101662 0 0 0 136.84375 55.375 L 136.84375 14.09375 A 1.0101662 1.0101662 0 0 0 135.84375 13.09375 L 130.9375 13.09375 A 1.0101662 1.0101662 0 0 0 129.9375 14.09375 L 129.9375 35.28125 C 129.9375 40.250579 129.27787 43.201332 127.875 45.5625 L 127.90625 45.5625 C 126.01494 48.549459 123.10047 50.21875 119.65625 50.21875 C 115.92792 50.21875 112.88197 48.51967 111.40625 45.5625 A 1.0101662 1.0101662 0 0 0 111.40625 45.53125 C 110.41645 43.675123 109.78125 40.476712 109.78125 36.34375 L 109.78125 14.09375 A 1.0101662 1.0101662 0 0 0 108.78125 13.09375 L 103.875 13.09375 A 1.0101662 1.0101662 0 0 0 103.6875 13.09375 z M 192.59375 19.21875 C 198.76608 19.21875 203.39871 23.435982 205.25 30.53125 L 180.25 30.53125 C 181.84236 23.694472 186.58465 19.21875 192.59375 19.21875 z "
       style="font-size:40px;font-style:normal;font-variant:normal;font-stretch:normal;line-height:125%;letter-spacing:0px;word-spacing:0px;fill:#999999;fill-opacity:1;stroke:none;font-family:URW Gothic L;-inkscape-font-specification:URW Gothic L Book"
       id="path3001"
       d="m 67.5,4.71875 c -0.09037,0.060372 -0.112115,0.023996 -0.15625,0.03125 0.381052,-0.077866 -2.253808,0.451672 -0.28125,0.09375 0.597257,-0.2420909 -2.990169,1.2046431 -0.28125,0.125 -0.04167,0.03125 -0.208333,0.15625 -0.25,0.1875 -0.0054,0.00466 -0.08881,0.088648 -0.09375,0.09375 -0.0049,0.0051 -0.120524,0.1194909 -0.125,0.125 -0.0045,0.00551 -0.08977,0.119125 -0.09375,0.125 -0.004,0.00587 -0.05904,0.1188029 -0.0625,0.125 -0.0035,0.0062 -0.05959,0.1185272 -0.0625,0.125 -0.0029,0.00647 -0.06016,0.1495498 -0.0625,0.15625 -0.0023,0.0067 -0.06074,0.1493725 -0.0625,0.15625 -0.0018,0.00688 -0.03009,0.1179965 -0.03125,0.125 -0.0012,0.007 5.47e-4,0.1491728 0,0.15625 -5.47e-4,0.00708 -6.6e-5,0.1491519 0,0.15625 l 0,49 c 4e-5,0.004 -2.33e-4,0.08978 0,0.09375 2.33e-4,0.004 -4.25e-4,0.08979 0,0.09375 4.25e-4,0.004 -6.16e-4,0.05857 0,0.0625 6.16e-4,0.0039 0.03044,0.08985 0.03125,0.09375 8.06e-4,0.0039 -9.93e-4,0.0899 0,0.09375 9.93e-4,0.0039 0.03007,0.0587 0.03125,0.0625 0.0012,0.0038 0.02989,0.09001 0.03125,0.09375 0.0014,0.0037 0.02971,0.09008 0.03125,0.09375 0.0015,0.0037 0.02953,0.05891 0.03125,0.0625 0.0017,0.0036 0.02936,0.09025 0.03125,0.09375 0.0019,0.0035 0.06044,0.05909 0.0625,0.0625 0.0021,0.0034 0.02903,0.0592 0.03125,0.0625 0.0022,0.0033 0.06012,0.09056 0.0625,0.09375 0.0024,0.0032 0.02872,0.05943 0.03125,0.0625 0.0025,0.0031 0.05983,0.05955 0.0625,0.0625 0.0027,0.0029 0.05969,0.05969 0.0625,0.0625 0.0028,0.0028 0.05955,0.05983 0.0625,0.0625 0.0029,0.0027 0.05943,0.05997 0.0625,0.0625 0.0031,0.0025 0.05931,0.02887 0.0625,0.03125 0.0032,0.0024 0.09045,0.06028 0.09375,0.0625 0.0033,0.0022 0.05909,0.02919 0.0625,0.03125 0.0034,0.0021 0.059,0.06061 0.0625,0.0625 0.0035,0.0019 0.09016,0.02953 0.09375,0.03125 0.0036,0.0017 0.05883,0.02971 0.0625,0.03125 0.0037,0.0015 0.09001,0.02989 0.09375,0.03125 0.0037,0.0014 0.08995,0.03007 0.09375,0.03125 0.0038,0.0012 0.05865,0.03026 0.0625,0.03125 0.0039,9.93e-4 0.08985,-8.06e-4 0.09375,0 0.0039,8.06e-4 0.08982,0.03063 0.09375,0.03125 0.0039,6.16e-4 0.05854,-4.25e-4 0.0625,0 0.004,4.25e-4 0.08978,-2.33e-4 0.09375,0 0.004,2.33e-4 0.08977,-4e-5 0.09375,0 l 4.90625,0 c 0.004,-4e-5 0.08978,2.33e-4 0.09375,0 0.004,-2.33e-4 0.08979,4.25e-4 0.09375,0 0.004,-4.25e-4 0.05857,6.16e-4 0.0625,0 0.0039,-6.16e-4 0.08985,-0.03044 0.09375,-0.03125 0.0039,-8.06e-4 0.0899,9.93e-4 0.09375,0 0.0039,-9.93e-4 0.0587,-0.03007 0.0625,-0.03125 0.0038,-0.0012 0.09001,-0.02989 0.09375,-0.03125 0.0037,-0.0014 0.09008,-0.02971 0.09375,-0.03125 0.0037,-0.0015 0.05891,-0.02953 0.0625,-0.03125 0.0036,-0.0017 0.09025,-0.02936 0.09375,-0.03125 0.0035,-0.0019 0.05909,-0.06044 0.0625,-0.0625 0.0034,-0.0021 0.0592,-0.02903 0.0625,-0.03125 0.0033,-0.0022 0.09056,-0.06012 0.09375,-0.0625 0.0032,-0.0024 0.05943,-0.02872 0.0625,-0.03125 0.0031,-0.0025 0.05955,-0.05983 0.0625,-0.0625 0.0029,-0.0027 0.05969,-0.05969 0.0625,-0.0625 0.0028,-0.0028 0.05983,-0.05955 0.0625,-0.0625 0.0027,-0.0029 0.05997,-0.05943 0.0625,-0.0625 0.0025,-0.0031 0.02887,-0.05931 0.03125,-0.0625 0.0024,-0.0032 0.06028,-0.09045 0.0625,-0.09375 0.0022,-0.0033 0.02919,-0.05909 0.03125,-0.0625 0.0021,-0.0034 0.06061,-0.059 0.0625,-0.0625 0.0019,-0.0035 0.02953,-0.09016 0.03125,-0.09375 0.0017,-0.0036 0.02971,-0.05883 0.03125,-0.0625 0.0015,-0.0037 0.02989,-0.09001 0.03125,-0.09375 0.0014,-0.0037 0.03007,-0.08995 0.03125,-0.09375 0.0012,-0.0038 0.03026,-0.05865 0.03125,-0.0625 9.93e-4,-0.0039 -8.06e-4,-0.08985 0,-0.09375 8.06e-4,-0.0039 0.03063,-0.08982 0.03125,-0.09375 6.16e-4,-0.0039 -4.25e-4,-0.05854 0,-0.0625 4.25e-4,-0.004 -2.33e-4,-0.08978 0,-0.09375 2.33e-4,-0.004 -4e-5,-0.08977 0,-0.09375 l 0,-42.8125 5.15625,0 c 5.033634,0 8.219137,0.548246 10.5,1.625 0.0078,0.0037 0.0235,-0.0037 0.03125,0 2.676872,1.295663 4.15625,3.799634 4.15625,7.75 0,2.51766 -0.585489,4.389732 -1.5625,5.75 -0.980215,1.36473 -2.374433,2.292077 -4.53125,2.875 -2.064863,0.530965 -5.155974,0.84375 -10.53125,0.84375 -0.0056,6.6e-5 -0.119437,-4.45e-4 -0.125,0 -0.0056,4.45e-4 -0.11948,-8.22e-4 -0.125,0 -0.0055,8.22e-4 -0.119549,0.03006 -0.125,0.03125 -0.0055,0.0012 -0.119642,0.02969 -0.125,0.03125 -0.0054,0.0016 -0.08851,0.02933 -0.09375,0.03125 -0.0052,0.0019 -0.119903,0.02898 -0.125,0.03125 -0.0051,0.0023 -0.08882,0.05989 -0.09375,0.0625 -0.0049,0.0026 -0.120259,0.05956 -0.125,0.0625 -0.0047,0.0029 -0.08922,0.05924 -0.09375,0.0625 -0.0045,0.0033 -0.08945,0.09019 -0.09375,0.09375 -0.0043,0.0036 -0.0897,0.05866 -0.09375,0.0625 -0.004,0.0038 -0.05872,0.08964 -0.0625,0.09375 -0.0038,0.0041 -0.09026,0.08939 -0.09375,0.09375 -0.0035,0.0044 -0.05931,0.08917 -0.0625,0.09375 -0.0032,0.0046 -0.05963,0.08896 -0.0625,0.09375 -0.0029,0.0048 -0.05997,0.120028 -0.0625,0.125 -0.0025,0.005 -0.06031,0.08862 -0.0625,0.09375 -0.0022,0.0051 -0.02941,0.11973 -0.03125,0.125 -0.0018,0.0053 -0.02978,0.08837 -0.03125,0.09375 -0.0015,0.0054 -0.03014,0.11953 -0.03125,0.125 -0.0011,0.0055 -0.03052,0.119467 -0.03125,0.125 -7.32e-4,0.0055 3.55e-4,0.11943 0,0.125 -3.55e-4,0.0056 -2.4e-5,0.119419 0,0.125 2.4e-5,0.0056 -4.03e-4,0.08818 0,0.09375 4.03e-4,0.0056 -7.8e-4,0.119474 0,0.125 7.8e-4,0.0055 0.0301,0.11954 0.03125,0.125 0.0012,0.0055 0.02973,0.119631 0.03125,0.125 0.0015,0.0054 0.02937,0.0885 0.03125,0.09375 0.0019,0.0053 0.02902,0.119886 0.03125,0.125 0.0022,0.0051 0.05992,0.12005 0.0625,0.125 0.0026,0.005 0.05959,0.08899 0.0625,0.09375 0.0029,0.0048 0.05927,0.08919 0.0625,0.09375 a 0.76390567,0.76390567 0 0 0 0,0.03125 L 92.65625,56.5625 c 0.0029,0.0038 0.05942,0.05884 0.0625,0.0625 0.0031,0.0037 0.09046,0.09027 0.09375,0.09375 0.0033,0.0035 0.05901,0.05922 0.0625,0.0625 0.0035,0.0033 0.05883,0.05943 0.0625,0.0625 0.0037,0.0031 0.08991,0.05965 0.09375,0.0625 0.0038,0.0029 0.08975,0.05988 0.09375,0.0625 0.004,0.0026 0.0896,0.06011 0.09375,0.0625 0.0041,0.0024 0.08947,0.02911 0.09375,0.03125 0.0043,0.0021 0.08935,0.06061 0.09375,0.0625 0.0044,0.0019 0.08925,0.02962 0.09375,0.03125 0.0045,0.0016 0.08916,0.02989 0.09375,0.03125 0.0046,0.0014 0.08909,0.03016 0.09375,0.03125 0.0047,0.0011 0.08903,0.03043 0.09375,0.03125 0.0047,8.2e-4 0.08899,-5.44e-4 0.09375,0 0.0048,5.44e-4 0.120221,-2.66e-4 0.125,0 0.0048,2.66e-4 0.08896,1.3e-5 0.09375,0 l 6.09375,0 c 0.006,-6.6e-5 0.11944,4.45e-4 0.125,0 0.006,-4.45e-4 0.11948,8.22e-4 0.125,0 0.006,-8.22e-4 0.11955,-0.03005 0.125,-0.03125 0.005,-0.0012 0.11964,-0.02969 0.125,-0.03125 0.005,-0.0016 0.0885,-0.02933 0.0937,-0.03125 0.005,-0.0019 0.1199,-0.02898 0.125,-0.03125 0.005,-0.0023 0.0888,-0.05989 0.0937,-0.0625 0.005,-0.0026 0.12026,-0.05956 0.125,-0.0625 0.005,-0.0029 0.0892,-0.05924 0.0937,-0.0625 0.005,-0.0033 0.0894,-0.09019 0.0937,-0.09375 0.004,-0.0036 0.0897,-0.05866 0.0937,-0.0625 0.004,-0.0038 0.0587,-0.08964 0.0625,-0.09375 0.004,-0.0041 0.0903,-0.08939 0.0937,-0.09375 0.003,-0.0044 0.0593,-0.08917 0.0625,-0.09375 0.003,-0.0046 0.0596,-0.08896 0.0625,-0.09375 0.003,-0.0048 0.06,-0.120028 0.0625,-0.125 0.003,-0.005 0.0603,-0.08862 0.0625,-0.09375 0.002,-0.0051 0.0294,-0.11973 0.0312,-0.125 0.002,-0.0053 0.0298,-0.08837 0.0312,-0.09375 0.001,-0.0054 0.0301,-0.11953 0.0312,-0.125 0.001,-0.0055 0.0305,-0.119467 0.0312,-0.125 7.3e-4,-0.0055 -3.6e-4,-0.11943 0,-0.125 3.6e-4,-0.0056 2e-5,-0.119419 0,-0.125 -2e-5,-0.0056 4e-4,-0.08818 0,-0.09375 -4e-4,-0.0056 7.8e-4,-0.119474 0,-0.125 -7.8e-4,-0.0055 -0.0301,-0.11954 -0.0312,-0.125 -0.001,-0.0055 -0.0297,-0.119631 -0.0312,-0.125 -0.002,-0.0054 -0.0294,-0.0885 -0.0312,-0.09375 -0.002,-0.0053 -0.029,-0.119886 -0.0312,-0.125 -0.002,-0.0051 -0.0599,-0.12005 -0.0625,-0.125 -0.003,-0.005 -0.0596,-0.08899 -0.0625,-0.09375 -0.003,-0.0048 -0.0593,-0.08919 -0.0625,-0.09375 a 0.76390567,0.76390567 0 0 0 0,-0.03125 L 89.59375,38.375 c 3.620677,-0.794747 6.699469,-2.248232 8.90625,-4.53125 1.83899,-1.902522 2.99864,-4.317787 3.625,-7.0625 l 0,9.5625 c 0,6.291348 0.9005,10.930644 3.09375,14.375 3.03091,4.797569 8.0966,7.375 14.03125,7.375 4.09086,0 7.37775,-1.341813 9.9375,-3.84375 l 0,1.125 c 4e-5,0.004 -2.3e-4,0.08978 0,0.09375 2.3e-4,0.004 -4.2e-4,0.08979 0,0.09375 4.2e-4,0.004 -6.2e-4,0.05857 0,0.0625 6.2e-4,0.0039 0.0304,0.08985 0.0312,0.09375 8.1e-4,0.0039 -9.9e-4,0.0899 0,0.09375 9.9e-4,0.0039 0.0301,0.0587 0.0312,0.0625 0.001,0.0038 0.0299,0.09001 0.0312,0.09375 0.001,0.0037 0.0297,0.09008 0.0312,0.09375 0.002,0.0037 0.0295,0.05891 0.0312,0.0625 0.002,0.0036 0.0294,0.09025 0.0312,0.09375 0.002,0.0035 0.0604,0.05909 0.0625,0.0625 0.002,0.0034 0.029,0.0592 0.0312,0.0625 0.002,0.0033 0.0601,0.09056 0.0625,0.09375 0.002,0.0032 0.0287,0.05943 0.0312,0.0625 0.003,0.0031 0.0598,0.05955 0.0625,0.0625 0.003,0.0029 0.0597,0.05969 0.0625,0.0625 0.003,0.0028 0.0596,0.05983 0.0625,0.0625 0.003,0.0027 0.0594,0.05997 0.0625,0.0625 0.003,0.0025 0.0593,0.02887 0.0625,0.03125 0.003,0.0024 0.0905,0.06028 0.0937,0.0625 0.003,0.0022 0.0591,0.02919 0.0625,0.03125 0.003,0.0021 0.059,0.06061 0.0625,0.0625 0.004,0.0019 0.0902,0.02953 0.0937,0.03125 0.004,0.0017 0.0588,0.02971 0.0625,0.03125 0.004,0.0015 0.09,0.02989 0.0937,0.03125 0.004,0.0014 0.0899,0.03007 0.0937,0.03125 0.004,0.0012 0.0587,0.03026 0.0625,0.03125 0.004,9.93e-4 0.0899,-8.06e-4 0.0937,0 0.004,8.06e-4 0.0898,0.03063 0.0937,0.03125 0.004,6.16e-4 0.0585,-4.25e-4 0.0625,0 0.004,4.25e-4 0.0898,-2.33e-4 0.0937,0 0.004,2.33e-4 0.0898,-4e-5 0.0937,0 l 4.90625,0 c 0.004,-4e-5 0.0898,2.33e-4 0.0937,0 0.004,-2.33e-4 0.0898,4.25e-4 0.0937,0 0.004,-4.25e-4 0.0586,6.16e-4 0.0625,0 0.004,-6.16e-4 0.0899,-0.03044 0.0937,-0.03125 0.004,-8.06e-4 0.0899,9.93e-4 0.0937,0 0.004,-9.93e-4 0.0587,-0.03007 0.0625,-0.03125 0.004,-0.0012 0.09,-0.02989 0.0937,-0.03125 0.004,-0.0014 0.0901,-0.02971 0.0937,-0.03125 0.004,-0.0015 0.0589,-0.02953 0.0625,-0.03125 0.004,-0.0017 0.0902,-0.02936 0.0937,-0.03125 0.004,-0.0019 0.0591,-0.06044 0.0625,-0.0625 0.003,-0.0021 0.0592,-0.02903 0.0625,-0.03125 0.003,-0.0022 0.0906,-0.06012 0.0937,-0.0625 0.003,-0.0024 0.0594,-0.02872 0.0625,-0.03125 0.003,-0.0025 0.0596,-0.05983 0.0625,-0.0625 0.003,-0.0027 0.0597,-0.05969 0.0625,-0.0625 0.003,-0.0028 0.0598,-0.05955 0.0625,-0.0625 0.003,-0.0029 0.06,-0.05943 0.0625,-0.0625 0.003,-0.0031 0.0289,-0.05931 0.0312,-0.0625 0.002,-0.0032 0.0603,-0.09045 0.0625,-0.09375 0.002,0.0033 0.0601,0.09056 0.0625,0.09375 0.002,0.0032 0.0287,0.05943 0.0312,0.0625 0.003,0.0031 0.0598,0.05955 0.0625,0.0625 0.003,0.0029 0.0597,0.05969 0.0625,0.0625 0.003,0.0028 0.0596,0.05983 0.0625,0.0625 0.003,0.0027 0.0594,0.05997 0.0625,0.0625 0.003,0.0025 0.0593,0.02887 0.0625,0.03125 0.003,0.0024 0.0905,0.06028 0.0937,0.0625 0.003,0.0022 0.0591,0.02919 0.0625,0.03125 0.003,0.0021 0.059,0.06061 0.0625,0.0625 0.004,0.0019 0.0902,0.02953 0.0937,0.03125 0.004,0.0017 0.0588,0.02971 0.0625,0.03125 0.004,0.0015 0.09,0.02989 0.0937,0.03125 0.004,0.0014 0.0899,0.03007 0.0937,0.03125 0.004,0.0012 0.0587,0.03026 0.0625,0.03125 0.004,9.93e-4 0.0899,-8.06e-4 0.0937,0 0.004,8.06e-4 0.0898,0.03063 0.0937,0.03125 0.004,6.16e-4 0.0585,-4.25e-4 0.0625,0 0.004,4.25e-4 0.0898,-2.33e-4 0.0937,0 0.004,2.33e-4 0.0898,-4e-5 0.0937,0 l 4.90625,0 c 0.004,-4e-5 0.0898,2.33e-4 0.0937,0 0.004,-2.33e-4 0.0898,4.25e-4 0.0937,0 0.004,-4.25e-4 0.0586,6.16e-4 0.0625,0 0.004,-6.16e-4 0.0899,-0.03044 0.0937,-0.03125 0.004,-8.06e-4 0.0899,9.93e-4 0.0937,0 0.004,-9.93e-4 0.0587,-0.03007 0.0625,-0.03125 0.004,-0.0012 0.09,-0.02989 0.0937,-0.03125 0.004,-0.0014 0.0901,-0.02971 0.0937,-0.03125 0.004,-0.0015 0.0589,-0.02953 0.0625,-0.03125 0.004,-0.0017 0.0902,-0.02936 0.0937,-0.03125 0.004,-0.0019 0.0591,-0.06044 0.0625,-0.0625 0.003,-0.0021 0.0592,-0.02903 0.0625,-0.03125 0.003,-0.0022 0.0906,-0.06012 0.0937,-0.0625 0.003,-0.0024 0.0594,-0.02872 0.0625,-0.03125 0.003,-0.0025 0.0596,-0.05983 0.0625,-0.0625 0.003,-0.0027 0.0597,-0.05969 0.0625,-0.0625 0.003,-0.0028 0.0598,-0.05955 0.0625,-0.0625 0.003,-0.0029 0.06,-0.05943 0.0625,-0.0625 0.003,-0.0031 0.0289,-0.05931 0.0312,-0.0625 0.002,-0.0032 0.0603,-0.09045 0.0625,-0.09375 0.002,-0.0033 0.0292,-0.05909 0.0312,-0.0625 0.002,-0.0034 0.0606,-0.059 0.0625,-0.0625 0.002,-0.0035 0.0295,-0.09016 0.0312,-0.09375 0.002,-0.0036 0.0297,-0.05883 0.0312,-0.0625 0.002,-0.0037 0.0299,-0.09001 0.0312,-0.09375 0.001,-0.0037 0.0301,-0.08995 0.0312,-0.09375 0.001,-0.0038 0.0303,-0.05865 0.0312,-0.0625 9.9e-4,-0.0039 -8.1e-4,-0.08985 0,-0.09375 8.1e-4,-0.0039 0.0306,-0.08982 0.0312,-0.09375 6.2e-4,-0.0039 -4.2e-4,-0.05854 0,-0.0625 4.2e-4,-0.004 -2.3e-4,-0.08978 0,-0.09375 2.3e-4,-0.004 -4e-5,-0.08977 0,-0.09375 l 0,-22.71875 c 0,-4.448508 0.50229,-6.383864 1.71875,-8.4375 0.005,-0.0083 -0.005,-0.0229 0,-0.03125 1.61094,-2.640345 4.36917,-4.21875 7.625,-4.21875 3.01018,0 5.68536,1.412531 7.34375,3.71875 0.15371,0.213679 0.1681,0.223343 0.0312,0.03125 1.46694,2.199737 2.0625,4.729346 2.0625,10 l 0,21.65625 c 4e-5,0.004 -2.3e-4,0.08978 0,0.09375 2.3e-4,0.004 -4.2e-4,0.08979 0,0.09375 4.2e-4,0.004 -6.2e-4,0.05857 0,0.0625 6.2e-4,0.0039 0.0304,0.08985 0.0312,0.09375 8.1e-4,0.0039 -9.9e-4,0.0899 0,0.09375 9.9e-4,0.0039 0.0301,0.0587 0.0312,0.0625 0.001,0.0038 0.0299,0.09001 0.0312,0.09375 0.001,0.0037 0.0297,0.09008 0.0312,0.09375 0.002,0.0037 0.0295,0.05891 0.0312,0.0625 0.002,0.0036 0.0294,0.09025 0.0312,0.09375 0.002,0.0035 0.0604,0.05909 0.0625,0.0625 0.002,0.0034 0.029,0.0592 0.0312,0.0625 0.002,0.0033 0.0601,0.09056 0.0625,0.09375 0.002,0.0032 0.0287,0.05943 0.0312,0.0625 0.003,0.0031 0.0598,0.05955 0.0625,0.0625 0.003,0.0029 0.0597,0.05969 0.0625,0.0625 0.003,0.0028 0.0596,0.05983 0.0625,0.0625 0.003,0.0027 0.0594,0.05997 0.0625,0.0625 0.003,0.0025 0.0593,0.02887 0.0625,0.03125 0.003,0.0024 0.0905,0.06028 0.0937,0.0625 0.003,0.0022 0.0591,0.02919 0.0625,0.03125 0.003,0.0021 0.059,0.06061 0.0625,0.0625 0.004,0.0019 0.0902,0.02953 0.0937,0.03125 0.004,0.0017 0.0588,0.02971 0.0625,0.03125 0.004,0.0015 0.09,0.02989 0.0937,0.03125 0.004,0.0014 0.0899,0.03007 0.0937,0.03125 0.004,0.0012 0.0587,0.03026 0.0625,0.03125 0.004,9.93e-4 0.0899,-8.06e-4 0.0937,0 0.004,8.06e-4 0.0898,0.03063 0.0937,0.03125 0.004,6.16e-4 0.0585,-4.25e-4 0.0625,0 0.004,4.25e-4 0.0898,-2.33e-4 0.0937,0 0.004,2.33e-4 0.0898,-4e-5 0.0937,0 l 4.90625,0 c 0.004,-4e-5 0.0898,2.33e-4 0.0937,0 0.004,-2.33e-4 0.0898,4.25e-4 0.0937,0 0.004,-4.25e-4 0.0586,6.16e-4 0.0625,0 0.004,-6.16e-4 0.0899,-0.03044 0.0937,-0.03125 0.004,-8.06e-4 0.0899,9.93e-4 0.0937,0 0.004,-9.93e-4 0.0587,-0.03007 0.0625,-0.03125 0.004,-0.0012 0.09,-0.02989 0.0937,-0.03125 0.004,-0.0014 0.0901,-0.02971 0.0937,-0.03125 0.004,-0.0015 0.0589,-0.02953 0.0625,-0.03125 0.004,-0.0017 0.0902,-0.02936 0.0937,-0.03125 0.004,-0.0019 0.0591,-0.06044 0.0625,-0.0625 0.003,-0.0021 0.0592,-0.02903 0.0625,-0.03125 0.003,-0.0022 0.0906,-0.06012 0.0937,-0.0625 0.003,-0.0024 0.0594,-0.02872 0.0625,-0.03125 0.003,-0.0025 0.0596,-0.05983 0.0625,-0.0625 0.003,-0.0027 0.0597,-0.05969 0.0625,-0.0625 0.003,-0.0028 0.0598,-0.05955 0.0625,-0.0625 0.003,-0.0029 0.06,-0.05943 0.0625,-0.0625 0.003,-0.0031 0.0289,-0.05931 0.0312,-0.0625 0.002,-0.0032 0.0603,-0.09045 0.0625,-0.09375 0.002,-0.0033 0.0292,-0.05909 0.0312,-0.0625 0.002,-0.0034 0.0606,-0.059 0.0625,-0.0625 0.002,-0.0035 0.0295,-0.09016 0.0312,-0.09375 0.002,-0.0036 0.0297,-0.05883 0.0312,-0.0625 0.002,-0.0037 0.0299,-0.09001 0.0312,-0.09375 0.001,-0.0037 0.0301,-0.08995 0.0312,-0.09375 0.001,-0.0038 0.0303,-0.05865 0.0312,-0.0625 9.9e-4,-0.0039 -8.1e-4,-0.08985 0,-0.09375 8.1e-4,-0.0039 0.0306,-0.08982 0.0312,-0.09375 6.2e-4,-0.0039 -4.2e-4,-0.05854 0,-0.0625 4.2e-4,-0.004 -2.3e-4,-0.08978 0,-0.09375 2.3e-4,-0.004 -4e-5,-0.08977 0,-0.09375 l 0,-15.625 c 2.06724,10.511774 10.20946,18.34375 20.375,18.34375 5.13875,0 10.02792,-2.148032 13.65625,-6.03125 2.7361,-2.955458 4.58412,-6.119224 5.65625,-9.78125 a 0.76390567,0.76390567 0 0 0 0.0312,0 c 0.001,-0.0045 -0.001,-0.120391 0,-0.125 0.001,-0.0046 0.0305,-0.08909 0.0312,-0.09375 7.4e-4,-0.0047 -4.7e-4,-0.08906 0,-0.09375 4.7e-4,-0.0047 0.031,-0.08904 0.0312,-0.09375 2e-4,-0.0047 7e-5,-0.120284 0,-0.125 -7e-5,-0.0047 -0.0309,-0.08905 -0.0312,-0.09375 -3.4e-4,-0.0047 6.1e-4,-0.08907 0,-0.09375 -6.1e-4,-0.0047 8.8e-4,-0.08912 0,-0.09375 -8.8e-4,-0.0046 -0.0301,-0.08917 -0.0312,-0.09375 -0.001,-0.0046 -0.0298,-0.120498 -0.0312,-0.125 -0.001,-0.0045 -0.0296,-0.08934 -0.0312,-0.09375 -0.002,-0.0044 -0.0293,-0.08944 -0.0312,-0.09375 -0.002,-0.0043 -0.0603,-0.08956 -0.0625,-0.09375 -0.002,-0.0042 -0.0289,-0.05844 -0.0312,-0.0625 -0.002,-0.0041 -0.0599,-0.08983 -0.0625,-0.09375 -0.003,-0.0039 -0.0597,-0.08999 -0.0625,-0.09375 -0.003,-0.0038 -0.0594,-0.05891 -0.0625,-0.0625 -0.003,-0.0036 -0.0592,-0.09034 -0.0625,-0.09375 -0.003,-0.0034 -0.0591,-0.05928 -0.0625,-0.0625 -0.003,-0.0032 -0.0901,-0.05948 -0.0937,-0.0625 -0.004,-0.003 -0.0587,-0.0597 -0.0625,-0.0625 -0.004,-0.0028 -0.0898,-0.05992 -0.0937,-0.0625 -0.004,-0.0026 -0.0897,-0.06015 -0.0937,-0.0625 -0.004,-0.0023 -0.0895,-0.02914 -0.0937,-0.03125 -0.004,-0.0021 -0.0894,-0.06063 -0.0937,-0.0625 -0.004,-0.0019 -0.0893,-0.02964 -0.0937,-0.03125 -0.004,-0.0016 -0.0892,-0.02989 -0.0937,-0.03125 -0.005,-0.0014 -0.0892,-0.03016 -0.0937,-0.03125 -0.005,-0.0011 -0.0891,-0.03042 -0.0937,-0.03125 -0.005,-8.29e-4 -0.0891,5.61e-4 -0.0937,0 -0.005,-5.61e-4 -0.12029,2.91e-4 -0.125,0 -0.005,-2.91e-4 -0.089,2e-5 -0.0937,0 l -5.09375,0 c -0.006,5.3e-5 -0.11884,-5.18e-4 -0.125,0 -0.006,5.18e-4 -0.15015,-9.79e-4 -0.15625,0 -0.006,9.79e-4 -0.11899,0.02981 -0.125,0.03125 -0.006,0.0014 -0.11911,0.02937 -0.125,0.03125 -0.006,0.0019 -0.11927,0.06018 -0.125,0.0625 -0.006,0.0023 -0.11946,0.02851 -0.125,0.03125 -0.006,0.0027 -0.11968,0.0906 -0.125,0.09375 -0.005,0.0032 -0.0887,0.05896 -0.0937,0.0625 -0.005,0.0035 -0.12022,0.05859 -0.125,0.0625 -0.005,0.0039 -0.0893,0.08949 -0.0937,0.09375 -0.004,0.0043 -0.0896,0.08916 -0.0937,0.09375 -0.004,0.0046 -0.09,0.120114 -0.0937,0.125 -0.004,0.0049 -0.0591,0.08859 -0.0625,0.09375 -0.003,0.0052 -0.0595,0.119601 -0.0625,0.125 -0.003,0.0054 -0.0599,0.08814 -0.0625,0.09375 -0.003,0.0056 -0.0603,0.119211 -0.0625,0.125 a 0.76390567,0.76390567 0 0 0 0,0.03125 c -1.82038,5.014392 -6.31159,8.28125 -11,8.28125 -5.82276,0 -10.93117,-4.786937 -12.0625,-11.15625 l 30.75,0 c 0.004,-4e-5 0.0898,2.33e-4 0.0937,0 0.004,-2.33e-4 0.0898,4.25e-4 0.0937,0 0.004,-4.25e-4 0.0586,6.16e-4 0.0625,0 0.004,-6.16e-4 0.0899,-0.03044 0.0937,-0.03125 0.004,-8.06e-4 0.0899,9.93e-4 0.0937,0 0.004,-9.93e-4 0.0587,-0.03007 0.0625,-0.03125 0.004,-0.0012 0.09,-0.02989 0.0937,-0.03125 0.004,-0.0014 0.0901,-0.02971 0.0937,-0.03125 0.004,-0.0015 0.0589,-0.02953 0.0625,-0.03125 0.004,-0.0017 0.0902,-0.02936 0.0937,-0.03125 0.004,-0.0019 0.0591,-0.06044 0.0625,-0.0625 0.003,-0.0021 0.0592,-0.02903 0.0625,-0.03125 0.003,-0.0022 0.0906,-0.06012 0.0937,-0.0625 0.003,-0.0024 0.0594,-0.02872 0.0625,-0.03125 0.003,-0.0025 0.0596,-0.05983 0.0625,-0.0625 0.003,-0.0027 0.0597,-0.05969 0.0625,-0.0625 0.003,-0.0028 0.0598,-0.05955 0.0625,-0.0625 0.003,-0.0029 0.06,-0.05943 0.0625,-0.0625 0.003,-0.0031 0.0289,-0.05931 0.0312,-0.0625 0.002,-0.0032 0.0603,-0.09045 0.0625,-0.09375 0.002,-0.0033 0.0292,-0.05909 0.0312,-0.0625 0.002,-0.0034 0.0606,-0.059 0.0625,-0.0625 0.002,-0.0035 0.0295,-0.09016 0.0312,-0.09375 0.002,-0.0036 0.0297,-0.05883 0.0312,-0.0625 0.002,-0.0037 0.0299,-0.09001 0.0312,-0.09375 0.001,-0.0037 0.0301,-0.08995 0.0312,-0.09375 0.001,-0.0038 0.0303,-0.05865 0.0312,-0.0625 9.9e-4,-0.0039 -8.1e-4,-0.08985 0,-0.09375 8.1e-4,-0.0039 0.0306,-0.08982 0.0312,-0.09375 6.2e-4,-0.0039 -4.2e-4,-0.05854 0,-0.0625 4.2e-4,-0.004 -2.3e-4,-0.08978 0,-0.09375 2.3e-4,-0.004 -4e-5,-0.08977 0,-0.09375 0,-5.80459 -0.71275,-9.660677 -2.625,-13.53125 -3.52117,-7.118189 -10.42373,-11.6875 -18.03125,-11.6875 -10.21791,0 -18.38288,8.037083 -20.1875,18.71875 -0.30891,-4.941685 -1.26692,-8.403721 -3.3125,-11.53125 a 0.76390567,0.76390567 0 0 0 -0.0312,-0.0625 c -0.0131,-0.01881 -0.018,-0.04376 -0.0312,-0.0625 -0.002,-0.0026 -0.0599,-0.06002 -0.0625,-0.0625 -3.16147,-4.435708 -8.06402,-7 -13.65625,-7 -3.79929,0 -7.12611,1.399724 -9.9375,3.8125 l 0,-1.0625 c -4e-5,-0.004 2.3e-4,-0.08978 0,-0.09375 -2.3e-4,-0.004 4.2e-4,-0.08979 0,-0.09375 -4.2e-4,-0.004 6.2e-4,-0.05857 0,-0.0625 -6.2e-4,-0.0039 -0.0304,-0.08985 -0.0312,-0.09375 -8.1e-4,-0.0039 9.9e-4,-0.0899 0,-0.09375 -9.9e-4,-0.0039 -0.0301,-0.0587 -0.0312,-0.0625 -0.001,-0.0038 -0.0299,-0.09001 -0.0312,-0.09375 -0.001,-0.0037 -0.0297,-0.09008 -0.0312,-0.09375 -0.002,-0.0037 -0.0295,-0.05891 -0.0312,-0.0625 -0.002,-0.0036 -0.0294,-0.09025 -0.0312,-0.09375 -0.002,-0.0035 -0.0604,-0.05909 -0.0625,-0.0625 -0.002,-0.0034 -0.029,-0.0592 -0.0312,-0.0625 -0.002,-0.0033 -0.0601,-0.09056 -0.0625,-0.09375 -0.002,-0.0032 -0.0287,-0.05943 -0.0312,-0.0625 -0.003,-0.0031 -0.0598,-0.05955 -0.0625,-0.0625 -0.003,-0.0029 -0.0597,-0.05969 -0.0625,-0.0625 -0.003,-0.0028 -0.0596,-0.05983 -0.0625,-0.0625 -0.003,-0.0027 -0.0594,-0.05997 -0.0625,-0.0625 -0.003,-0.0025 -0.0593,-0.02887 -0.0625,-0.03125 -0.003,-0.0024 -0.0905,-0.06028 -0.0937,-0.0625 -0.003,-0.0022 -0.0591,-0.02919 -0.0625,-0.03125 -0.003,-0.0021 -0.059,-0.06061 -0.0625,-0.0625 -0.004,-0.0019 -0.0902,-0.02953 -0.0937,-0.03125 -0.004,-0.0017 -0.0588,-0.02971 -0.0625,-0.03125 -0.004,-0.0015 -0.09,-0.02989 -0.0937,-0.03125 -0.004,-0.0014 -0.0899,-0.03007 -0.0937,-0.03125 -0.004,-0.0012 -0.0587,-0.03026 -0.0625,-0.03125 -0.004,-9.93e-4 -0.0899,8.06e-4 -0.0937,0 -0.004,-8.06e-4 -0.0898,-0.03063 -0.0937,-0.03125 -0.004,-6.16e-4 -0.0585,4.25e-4 -0.0625,0 -0.004,-4.25e-4 -0.0898,2.33e-4 -0.0937,0 -0.004,-2.33e-4 -0.0898,4e-5 -0.0937,0 l -4.90625,0 c -0.004,4e-5 -0.0898,-2.33e-4 -0.0937,0 -0.004,2.33e-4 -0.0898,-4.25e-4 -0.0937,0 -0.004,4.25e-4 -0.0586,-6.16e-4 -0.0625,0 -0.004,6.16e-4 -0.0899,0.03044 -0.0937,0.03125 -0.004,8.06e-4 -0.0899,-9.93e-4 -0.0937,0 -0.004,9.93e-4 -0.0587,0.03007 -0.0625,0.03125 -0.004,0.0012 -0.09,0.02989 -0.0937,0.03125 -0.004,0.0014 -0.0901,0.02971 -0.0937,0.03125 -0.004,0.0015 -0.0589,0.02953 -0.0625,0.03125 -0.004,0.0017 -0.0902,0.02936 -0.0937,0.03125 -0.004,0.0019 -0.0591,0.06044 -0.0625,0.0625 -0.003,0.0021 -0.0592,0.02903 -0.0625,0.03125 -0.003,0.0022 -0.0906,0.06012 -0.0937,0.0625 -0.003,0.0024 -0.0594,0.02872 -0.0625,0.03125 -0.003,0.0025 -0.0596,0.05983 -0.0625,0.0625 -0.003,0.0027 -0.0597,0.05969 -0.0625,0.0625 -0.003,0.0028 -0.0598,0.05955 -0.0625,0.0625 -0.003,0.0029 -0.06,0.05943 -0.0625,0.0625 -0.003,0.0031 -0.0289,0.05931 -0.0312,0.0625 -0.002,0.0032 -0.0603,0.09045 -0.0625,0.09375 -0.002,-0.0033 -0.0601,-0.09056 -0.0625,-0.09375 -0.002,-0.0032 -0.0287,-0.05943 -0.0312,-0.0625 -0.003,-0.0031 -0.0598,-0.05955 -0.0625,-0.0625 -0.003,-0.0029 -0.0597,-0.05969 -0.0625,-0.0625 -0.003,-0.0028 -0.0596,-0.05983 -0.0625,-0.0625 -0.003,-0.0027 -0.0594,-0.05997 -0.0625,-0.0625 -0.003,-0.0025 -0.0593,-0.02887 -0.0625,-0.03125 -0.003,-0.0024 -0.0905,-0.06028 -0.0937,-0.0625 -0.003,-0.0022 -0.0591,-0.02919 -0.0625,-0.03125 -0.003,-0.0021 -0.059,-0.06061 -0.0625,-0.0625 -0.004,-0.0019 -0.0902,-0.02953 -0.0937,-0.03125 -0.004,-0.0017 -0.0588,-0.02971 -0.0625,-0.03125 -0.004,-0.0015 -0.09,-0.02989 -0.0937,-0.03125 -0.004,-0.0014 -0.0899,-0.03007 -0.0937,-0.03125 -0.004,-0.0012 -0.0587,-0.03026 -0.0625,-0.03125 -0.004,-9.93e-4 -0.0899,8.06e-4 -0.0937,0 -0.004,-8.06e-4 -0.0898,-0.03063 -0.0937,-0.03125 -0.004,-6.16e-4 -0.0585,4.25e-4 -0.0625,0 -0.004,-4.25e-4 -0.0898,2.33e-4 -0.0937,0 -0.004,-2.33e-4 -0.0898,4e-5 -0.0937,0 l -4.90625,0 c -0.004,4e-5 -0.0898,-2.33e-4 -0.0937,0 -0.004,2.33e-4 -0.0898,-4.25e-4 -0.0937,0 -0.004,4.25e-4 -0.0586,-6.16e-4 -0.0625,0 -0.004,6.16e-4 -0.0899,0.03044 -0.0937,0.03125 -0.004,8.06e-4 -0.0899,-9.93e-4 -0.0937,0 -0.004,9.93e-4 -0.0587,0.03007 -0.0625,0.03125 -0.004,0.0012 -0.09,0.02989 -0.0937,0.03125 -0.004,0.0014 -0.0901,0.02971 -0.0937,0.03125 -0.004,0.0015 -0.0589,0.02953 -0.0625,0.03125 -0.004,0.0017 -0.0902,0.02936 -0.0937,0.03125 -0.004,0.0019 -0.0591,0.06044 -0.0625,0.0625 -0.003,0.0021 -0.0592,0.02903 -0.0625,0.03125 -0.003,0.0022 -0.0906,0.06012 -0.0937,0.0625 -0.003,0.0024 -0.0594,0.02872 -0.0625,0.03125 -0.003,0.0025 -0.0596,0.05983 -0.0625,0.0625 -0.003,0.0027 -0.0597,0.05969 -0.0625,0.0625 -0.003,0.0028 -0.0598,0.05955 -0.0625,0.0625 -0.003,0.0029 -0.06,0.05943 -0.0625,0.0625 -0.003,0.0031 -0.0289,0.05931 -0.0312,0.0625 -0.002,0.0032 -0.0603,0.09045 -0.0625,0.09375 -0.002,0.0033 -0.0292,0.05909 -0.0312,0.0625 -0.002,0.0034 -0.0606,0.059 -0.0625,0.0625 -0.002,0.0035 -0.0295,0.09016 -0.0312,0.09375 -0.002,0.0036 -0.0297,0.05883 -0.0312,0.0625 -0.002,0.0037 -0.0299,0.09001 -0.0312,0.09375 -0.001,0.0037 -0.0301,0.08995 -0.0312,0.09375 -0.001,0.0038 -0.0303,0.05865 -0.0312,0.0625 -9.9e-4,0.0039 8.1e-4,0.08985 0,0.09375 -8.1e-4,0.0039 -0.0306,0.08982 -0.0312,0.09375 -6.2e-4,0.0039 4.2e-4,0.05854 0,0.0625 -4.2e-4,0.004 2.3e-4,0.08978 0,0.09375 -2.3e-4,0.004 4e-5,0.08977 0,0.09375 l 0,21.1875 c 0,4.87829 -0.63635,7.66883 -1.9375,9.875 -0.006,0.0106 -0.025,0.02067 -0.0312,0.03125 a 0.76390567,0.76390567 0 0 0 -0.0312,0.0625 c -1.76965,2.732286 -4.3719,4.21875 -7.53125,4.21875 -3.4688,0 -6.17975,-1.540356 -7.53125,-4.1875 a 0.76390567,0.76390567 0 0 0 -0.0312,-0.0625 0.76390567,0.76390567 0 0 0 0,-0.0625 c -0.88222,-1.654381 -1.5625,-4.757801 -1.5625,-8.8125 l 0,-22.25 c -4e-5,-0.004 2.3e-4,-0.08978 0,-0.09375 -2.3e-4,-0.004 4.2e-4,-0.08979 0,-0.09375 -4.2e-4,-0.004 6.2e-4,-0.05857 0,-0.0625 -6.2e-4,-0.0039 -0.0304,-0.08985 -0.0312,-0.09375 -8.1e-4,-0.0039 9.9e-4,-0.0899 0,-0.09375 -9.9e-4,-0.0039 -0.0301,-0.0587 -0.0312,-0.0625 -0.001,-0.0038 -0.0299,-0.09001 -0.0312,-0.09375 -0.001,-0.0037 -0.0297,-0.09008 -0.0312,-0.09375 -0.002,-0.0037 -0.0295,-0.05891 -0.0312,-0.0625 -0.002,-0.0036 -0.0294,-0.09025 -0.0312,-0.09375 -0.002,-0.0035 -0.0604,-0.05909 -0.0625,-0.0625 -0.002,-0.0034 -0.029,-0.0592 -0.0312,-0.0625 -0.002,-0.0033 -0.0601,-0.09056 -0.0625,-0.09375 -0.002,-0.0032 -0.0287,-0.05943 -0.0312,-0.0625 -0.003,-0.0031 -0.0598,-0.05955 -0.0625,-0.0625 -0.003,-0.0029 -0.0597,-0.05969 -0.0625,-0.0625 -0.003,-0.0028 -0.0596,-0.05983 -0.0625,-0.0625 -0.003,-0.0027 -0.0594,-0.05997 -0.0625,-0.0625 -0.003,-0.0025 -0.0593,-0.02887 -0.0625,-0.03125 -0.003,-0.0024 -0.0905,-0.06028 -0.0937,-0.0625 -0.003,-0.0022 -0.0591,-0.02919 -0.0625,-0.03125 -0.003,-0.0021 -0.059,-0.06061 -0.0625,-0.0625 -0.004,-0.0019 -0.0902,-0.02953 -0.0937,-0.03125 -0.004,-0.0017 -0.0588,-0.02971 -0.0625,-0.03125 -0.004,-0.0015 -0.09,-0.02989 -0.0937,-0.03125 -0.004,-0.0014 -0.09,-0.03007 -0.0937,-0.03125 -0.004,-0.0012 -0.0587,-0.03026 -0.0625,-0.03125 -0.004,-9.93e-4 -0.0898,8.06e-4 -0.0937,0 -0.004,-8.06e-4 -0.0898,-0.03063 -0.0937,-0.03125 -0.004,-6.16e-4 -0.0585,4.25e-4 -0.0625,0 -0.004,-4.25e-4 -0.0898,2.33e-4 -0.0937,0 -0.004,-2.33e-4 -0.0898,4e-5 -0.0937,0 l -4.84375,0 c -0.004,-3.54e-4 -0.0587,-0.03107 -0.0625,-0.03125 -0.004,-1.77e-4 -0.0899,0 -0.0937,0 -0.004,0 -0.0899,-1.77e-4 -0.0937,0 -0.004,1.77e-4 -0.0587,0.0309 -0.0625,0.03125 a 0.76390567,0.76390567 0 0 0 -0.0937,0 c -0.007,0.0014 -0.14943,0.02927 -0.15625,0.03125 -0.007,0.002 -0.11838,0.05993 -0.125,0.0625 -0.007,0.0026 -0.14988,0.05937 -0.15625,0.0625 -0.006,0.0031 -0.11892,0.05883 -0.125,0.0625 -0.006,0.0037 -0.11926,0.08957 -0.125,0.09375 -0.006,0.0042 -0.11964,0.08909 -0.125,0.09375 -0.005,0.0047 -0.0888,0.08865 -0.0937,0.09375 -0.005,0.0051 -0.12052,0.119491 -0.125,0.125 -0.004,0.0055 -0.0898,0.119125 -0.0937,0.125 -0.004,0.0059 -0.059,0.118803 -0.0625,0.125 -0.003,0.0062 -0.0596,0.118527 -0.0625,0.125 -0.003,0.0065 -0.0602,0.14955 -0.0625,0.15625 -0.002,0.0067 -0.0607,0.149372 -0.0625,0.15625 -0.002,0.0069 -0.0301,0.117996 -0.0312,0.125 -0.001,0.007 5.5e-4,0.149173 0,0.15625 -5.5e-4,0.0071 -7e-5,0.149152 0,0.15625 l 0,3.4375 C 101.04671,13.064811 98.403249,9.508793 94.40625,7.34375 90.94305,5.4615755 86.405742,4.75 79.84375,4.75 L 67.75,4.75 c -0.0038,-3.541e-4 -0.05869,-0.031073 -0.0625,-0.03125 -0.0038,-1.773e-4 -0.08993,0 -0.09375,0 -0.0038,0 -0.08994,-1.773e-4 -0.09375,0 z m 125.09375,15.25 c 5.52424,0 9.58931,3.595233 11.53125,9.8125 l -22.78125,0 c 1.73659,-5.990543 5.91507,-9.8125 11.25,-9.8125 z"
       transform="translate(-2.8679818,-1.4339909)" />
    <path
       style="fill:url(#linearGradient3771);fill-opacity:1;stroke:#956f27;stroke-width:0.5;stroke-opacity:0.88936168999999998"
       d="m 5.0879901,3.2402205 c -0.218082,0.01887 -0.411992,0.074369 -0.625,0.125 -0.997213,0.3900393 -1.854614,1.1412219 -2.34375,2.09375 -0.489137,0.9525281 -0.607793,2.0872883 -0.34375,3.125 0.322969,1.2692979 1.238494,2.3791705 2.4375,2.9062495 1.199005,0.527078 2.656635,0.452569 3.78125,-0.21875 1.019281,-0.608442 1.733424,-1.674352 1.937499,-2.8437495 0.2040749,-1.1693974 -0.103693,-2.4227768 -0.812499,-3.375 -0.522929,-0.7025106 -1.270706,-1.2319613 -2.09375,-1.53125 -0.617283,-0.2244665 -1.283254,-0.3378603 -1.9375,-0.28125 z m 47.3749989,2.46875 c -0.286584,2.2024097 -1.185137,4.3453655 -2.59375,6.0624995 -1.414423,1.724216 -3.270253,3.011686 -5.125,4.25 -0.240166,0.160346 -0.478172,0.339111 -0.71875,0.5 -2.336463,-0.992737 -4.840387,-1.571885 -7.375,-1.5625 -3.13951,0.01163 -6.298203,0.932348 -8.8125,2.8125 -1.650339,1.234097 -3.021236,2.872924 -3.9375,4.71875 2.538367,-2.076666 5.590411,-3.513452 8.8125,-4.125 2.417899,-0.458914 4.953679,-0.461853 7.34375,0.125 0.298759,0.07336 0.581108,0.15806 0.875,0.25 -0.512449,0.429061 -1.013204,0.883633 -1.46875,1.375 -1.795955,1.937179 -2.995545,4.42176 -3.40625,7.03125 -0.410706,2.60949 -0.02034,5.323562 1.09375,7.71875 -0.359269,-3.848354 0.856118,-7.82836 3.3125,-10.8125 1.143101,-1.388699 2.525015,-2.534797 3.9375,-3.65625 0.730479,0.473121 1.442043,0.982149 2.0625,1.59375 2.20725,2.175744 3.53449,5.176989 3.9375,8.25 0.403011,3.07301 -0.0808,6.229999 -1.1875,9.125 -1.98686,5.197406 -6.005373,9.616701 -11.0625,11.9375 -5.057127,2.320799 -11.128854,2.466772 -16.21875,0.21875 -4.956722,-2.189204 -8.862445,-6.594777 -10.625,-11.71875 -1.7625559,-5.123974 -1.3785449,-10.901776 0.84375,-15.84375 2.301661,-5.118469 6.628265,-9.368599 11.9375,-11.1875 4.1995,-1.438715 8.932143,-1.314106 13.0625,0.3125 l -0.21875,-2.9375 c -3.850638,-2.1527439 -8.356573,-3.1181518 -12.75,-2.7187495 -4.393427,0.3994024 -8.631937,2.1569192 -12.03125,4.9687495 -3.5273269,2.917722 -6.1039189,6.937168 -7.3437489,11.34375 -1.239831,4.406582 -1.14755,9.183826 0.1875,13.5625 1.761901,5.778653 5.6706339,10.837568 10.7187489,14.15625 5.048115,3.318682 11.182231,4.896156 17.21875,4.65625 6.308382,-0.25071 12.621716,-2.545957 17.1875,-6.90625 2.282892,-2.180147 4.095432,-4.862451 5.21875,-7.8125 1.123319,-2.950049 1.553814,-6.15383 1.125,-9.28125 -0.430683,-3.141052 -1.703999,-6.173061 -3.59375,-8.71875 -1.550821,-2.089116 -3.51651,-3.862117 -5.71875,-5.25 1.503026,-1.263106 2.934668,-2.604018 3.9375,-4.28125 1.443985,-2.415064 1.937014,-5.399118 1.375,-8.1562495 z m -31,31.2812495 c 0.256466,2.324693 1.435396,4.549351 3.21875,6.0625 1.783354,1.513149 4.133323,2.313011 6.46875,2.1875 2.070938,-0.111297 4.104233,-0.936849 5.65625,-2.3125 1.552017,-1.375651 2.609649,-3.301149 2.96875,-5.34375 -1.933577,2.897282 -5.329643,4.76083 -8.8125,4.8125 -1.910296,0.02834 -3.838063,-0.463914 -5.5,-1.40625 -1.661938,-0.942336 -3.043513,-2.346166 -4,-4 z m 33.75,14.15625 c -0.285427,-0.01649 -0.56558,0.02763 -0.84375,0.09375 -0.651136,0.254679 -1.211866,0.753041 -1.53125,1.375 -0.319385,0.621959 -0.391158,1.35367 -0.21875,2.03125 0.210885,0.828796 0.810852,1.562091 1.59375,1.90625 0.782898,0.344159 1.734426,0.282092 2.46875,-0.15625 0.665546,-0.397286 1.147999,-1.080185 1.28125,-1.84375 0.133252,-0.763565 -0.09968,-1.59699 -0.5625,-2.21875 -0.341449,-0.458708 -0.806338,-0.804577 -1.34375,-1 -0.268705,-0.09771 -0.558323,-0.171012 -0.84375,-0.1875 z"
       id="path2995"
       inkscape:connector-curvature="0" />
    <path
       style="font-size:40px;font-style:normal;font-variant:normal;font-stretch:normal;line-height:125%;letter-spacing:0px;word-spacing:0px;fill:#333333;fill-opacity:1;stroke:none;font-family:URW Gothic L;-inkscape-font-specification:URW Gothic L Book"
       d="m 64.819518,5.0660091 0,48.9999999 4.90625,0 0,-44.5624999 6.90625,0 c 5.171337,0 8.629283,0.5215649 11.28125,1.7812499 3.31496,1.59118 5.15625,4.901705 5.15625,9.34375 0,5.569132 -2.500109,9.017766 -7.40625,10.34375 -2.320472,0.596693 -5.532216,0.875 -10.96875,0.875 l 16.53125,22.21875 6.09375,0 -13.71875,-18.3125 c 9.414484,-0.994487 14.4375,-6.221056 14.4375,-14.90625 0,-6.165825 -2.570209,-10.82058 -7.34375,-13.4062499 -3.049762,-1.6574798 -7.287728,-2.375 -13.71875,-2.375 l -12.15625,0 z m 87.687502,6.5937499 c -4.77355,0 -8.63773,2.116545 -11.6875,6.34375 l 0,-5.34375 -4.90625,0 0,41.28125 4.90625,0 0,-22.71875 c 0,-4.604634 0.54523,-7.034938 1.9375,-9.375 1.92269,-3.170404 5.3109,-5.0625 9.15625,-5.0625 3.58016,0 6.82353,1.675774 8.8125,4.46875 1.72379,2.566519 2.375,5.596271 2.375,11.03125 l 0,21.65625 4.90625,0 0,-21.65625 c 0,-6.944695 -0.86702,-10.670914 -3.1875,-14.21875 -2.85087,-4.076233 -7.20746,-6.40625 -12.3125,-6.40625 z m 37.28125,0 c -10.54158,0 -18.8125,9.435252 -18.8125,21.4375 0,12.228707 8.41579,21.8125 19.15625,21.8125 4.64094,0 9.02879,-1.952163 12.34375,-5.5 2.58567,-2.792975 4.28675,-5.665636 5.28125,-9.0625 l -5.09375,0 c -2.05528,5.661437 -7.15341,9.4375 -12.65625,9.4375 -7.42552,0 -13.7272,-6.503779 -14.125,-14.65625 l 32.8125,0 c 0,-5.661437 -0.67865,-9.126679 -2.46875,-12.75 -3.24865,-6.567267 -9.54238,-10.71875 -16.4375,-10.71875 z m -88.78125,1 0,22.25 c 0,6.114355 0.92107,10.418066 2.84375,13.4375 2.71827,4.302693 7.09472,6.5625 12.53125,6.5625 5.63543,0 9.23443,-2.241962 11.6875,-7.375 l 0,6.40625 4.90625,0 0,-41.28125 -4.90625,0 0,21.1875 c 0,5.057552 -0.66262,8.245983 -2.1875,10.8125 -2.05526,3.245894 -5.3147,5.125 -9.09375,5.125 -4.04425,0 -7.49878,-1.89737 -9.15625,-5.21875 -1.1271,-2.113602 -1.71875,-5.429041 -1.71875,-9.65625 l 0,-22.25 -4.90625,0 z m 88.71875,4.125 c 7.02772,0 12.40501,5.084545 14.0625,13.3125 l -27.78125,0 c 1.32599,-7.926011 6.82362,-13.3125 13.71875,-13.3125 z"
       id="path3009"
       inkscape:connector-curvature="0" />
  </g>
</svg>
